<?xml version="1.0" encoding="UTF-8"?>
<svg width="135px" height="24px" viewBox="0 0 135 24" version="1.1" xmlns="http://www.w3.org/2000/svg" xmlns:xlink="http://www.w3.org/1999/xlink">
    <!-- Generator: Sketch 61 (89581) - https://sketch.com -->
    <title>Group 19 Copy</title>
    <desc>Created with Sketch.</desc>
    <defs>
        <path d="M38.3097683,0.091826087 C37.2516602,0.091826087 36.3942278,0.950608696 36.3942278,2.00921739 L36.3942278,2.00921739 C36.3942278,2.12765217 36.3890154,2.24504348 36.3780695,2.36086957 L36.3780695,2.36086957 C36.250888,3.77269565 35.3580116,4.96330435 34.1190347,5.51478261 L34.1190347,5.51478261 C33.6431467,5.7266087 33.1166988,5.844 32.5631467,5.844 L32.5631467,5.844 L25.9262548,5.844 C25.9272973,5.844 25.9272973,5.844 25.9272973,5.84504348 L25.9272973,5.84504348 C25.9048842,5.844 25.8814286,5.844 25.8590154,5.844 L25.8590154,5.844 C24.9635328,5.844 24.1034942,5.99843478 23.3039189,6.28173913 L23.3039189,6.28173913 C22.6773938,6.50347826 22.0883977,6.804 21.5489189,7.17234783 L21.5489189,7.17234783 C21.0183012,7.53443478 20.5356371,7.96173913 20.1129151,8.44226087 L20.1129151,8.44226087 C19.6901931,7.96173913 19.207529,7.53443478 18.6758687,7.17234783 L18.6758687,7.17234783 C18.1369112,6.804 17.5473938,6.50347826 16.92139,6.28173913 L16.92139,6.28173913 C16.1218147,5.99843478 15.2622973,5.844 14.3662934,5.844 L14.3662934,5.844 C14.3438803,5.844 14.3204247,5.844 14.2980116,5.84504348 L14.2980116,5.84504348 C14.2980116,5.844 14.2980116,5.844 14.2990541,5.844 L14.2990541,5.844 L7.66216216,5.844 C7.10913127,5.844 6.58216216,5.7266087 6.1057529,5.51478261 L6.1057529,5.51478261 C4.8672973,4.96330435 3.97494208,3.77269565 3.84723938,2.36086957 L3.84723938,2.36086957 C3.83629344,2.24504348 3.83108108,2.12765217 3.83108108,2.00921739 L3.83108108,2.00921739 C3.83108108,0.950608696 2.97364865,0.091826087 1.91554054,0.091826087 L1.91554054,0.091826087 C0.857432432,0.091826087 0,0.950608696 0,2.00921739 L0,2.00921739 C0,3.40591304 0.373204633,4.71652174 1.02527027,5.844 L1.02527027,5.844 L1.09250965,5.844 C1.08260618,5.86330435 1.071139,5.88208696 1.06019305,5.90295652 L1.06019305,5.90295652 C1.74926641,7.07113043 2.73909266,8.04156522 3.92333977,8.70521739 L3.92333977,8.70521739 C4.47741313,9.01617391 5.07370656,9.25930435 5.70179537,9.42417391 L5.70179537,9.42417391 C6.15110039,9.54365217 6.61604247,9.62243478 7.09245174,9.6573913 L7.09245174,9.6573913 C7.28061776,9.67095652 7.47034749,9.67878261 7.66216216,9.67878261 L7.66216216,9.67878261 C7.68457529,9.67878261 7.70803089,9.67878261 7.73044402,9.67773913 L7.73044402,9.67773913 C7.73044402,9.67878261 7.73044402,9.67878261 7.72835907,9.67878261 L7.72835907,9.67878261 C7.09818533,10.7718261 6.72758687,12.0349565 6.70517375,13.3826087 L6.70517375,13.3826087 C6.70413127,13.425913 6.70413127,13.4697391 6.70413127,13.5130435 L6.70413127,13.5130435 C6.70413127,17.085913 9.14559846,20.088 12.4481467,20.94 L12.4481467,20.94 C13.0621622,21.0986087 13.7043243,21.1826087 14.3662934,21.1826087 L14.3662934,21.1826087 C15.2622973,21.1826087 16.1218147,21.0286957 16.92139,20.7448696 L16.92139,20.7448696 C17.3545367,21.2822609 17.8351158,21.7794783 18.3579151,22.2297391 L18.3579151,22.2297391 C18.9005212,22.6987826 19.4884749,23.1172174 20.1129151,23.4782609 L20.1129151,23.4782609 C20.7373552,23.1172174 21.3242664,22.6987826 21.8673938,22.2297391 L21.8673938,22.2297391 C22.3901931,21.7794783 22.8712934,21.2822609 23.3039189,20.7448696 L23.3039189,20.7448696 C24.1034942,21.0286957 24.9635328,21.1826087 25.8590154,21.1826087 L25.8590154,21.1826087 C26.5209846,21.1826087 27.163668,21.0986087 27.7766409,20.94 L27.7766409,20.94 C31.0802317,20.088 33.5206564,17.085913 33.5206564,13.5130435 L33.5206564,13.5130435 C33.5206564,13.4697391 33.5206564,13.425913 33.5201351,13.3826087 L33.5201351,13.3826087 C33.4972008,12.0349565 33.1271236,10.7718261 32.4964286,9.67878261 L32.4964286,9.67878261 C32.4948649,9.67878261 32.4948649,9.67878261 32.4948649,9.67773913 L32.4948649,9.67773913 C32.517278,9.67878261 32.5407336,9.67878261 32.5631467,9.67878261 L32.5631467,9.67878261 C32.7549614,9.67878261 32.9436486,9.67095652 33.1323359,9.6573913 L33.1323359,9.6573913 C33.6092664,9.62243478 34.0742085,9.54365217 34.5235135,9.42417391 L34.5235135,9.42417391 C35.1510811,9.25930435 35.748417,9.01617391 36.3014479,8.70521739 L36.3014479,8.70521739 C37.485695,8.04156522 38.4755212,7.07113043 39.1651158,5.90295652 L39.1651158,5.90295652 C39.1541699,5.88208696 39.1427027,5.86330435 39.132278,5.844 L39.132278,5.844 L39.2005598,5.844 C39.851583,4.71652174 40.2247876,3.40591304 40.2247876,2.00921739 L40.2247876,2.00921739 C40.2247876,0.950608696 39.3673552,0.091826087 38.3097683,0.091826087 Z M25.2225869,17.2961739 C24.5647876,17.1850435 23.9648456,16.908 23.4655019,16.5073043 L23.4655019,16.5073043 C22.5903475,15.8045217 22.0279344,14.7245217 22.0279344,13.5130435 L22.0279344,13.5130435 C22.0279344,12.302087 22.5903475,11.222087 23.4655019,10.5193043 L23.4655019,10.5193043 C23.9648456,10.1186087 24.5647876,9.84156522 25.2225869,9.73095652 L25.2225869,9.73095652 C25.4284749,9.69704348 25.6421815,9.67878261 25.8590154,9.67878261 L25.8590154,9.67878261 C27.9413514,9.67878261 29.6369305,11.3426087 29.6885328,13.4144348 L29.6885328,13.4144348 C29.6900965,13.4473043 29.6900965,13.4801739 29.6900965,13.5130435 L29.6900965,13.5130435 C29.6900965,13.5464348 29.6900965,13.5798261 29.6885328,13.6121739 L29.6885328,13.6121739 C29.6369305,15.6845217 27.9413514,17.3483478 25.8590154,17.3483478 L25.8590154,17.3483478 C25.6421815,17.3483478 25.4284749,17.330087 25.2225869,17.2961739 L25.2225869,17.2961739 Z M10.5357336,13.6121739 C10.5346911,13.5798261 10.5346911,13.5464348 10.5346911,13.5130435 L10.5346911,13.5130435 C10.5346911,13.4801739 10.5346911,13.4473043 10.5357336,13.4144348 L10.5357336,13.4144348 C10.5883784,11.3426087 12.2834363,9.67878261 14.3662934,9.67878261 L14.3662934,9.67878261 L15.020444,9.67878261 C15.0141892,9.696 15.0079344,9.71321739 15.002722,9.73095652 L15.002722,9.73095652 C15.6605212,9.84156522 16.2604633,10.1186087 16.7592857,10.5193043 L16.7592857,10.5193043 C17.6354826,11.222087 18.1973745,12.302087 18.1973745,13.5130435 L18.1973745,13.5130435 C18.1973745,14.7245217 17.6354826,15.8045217 16.7592857,16.5073043 L16.7592857,16.5073043 C16.2604633,16.908 15.6605212,17.1850435 15.002722,17.2961739 L15.002722,17.2961739 C14.7957915,17.330087 14.5831274,17.3483478 14.3662934,17.3483478 L14.3662934,17.3483478 C12.2834363,17.3483478 10.5883784,15.6845217 10.5357336,13.6121739 L10.5357336,13.6121739 Z" id="path-1"></path>
        <polygon id="path-3" points="0 23.4782609 134.752413 23.4782609 134.752413 0.0923478261 0 0.0923478261"></polygon>
    </defs>
    <g id="Tabs" stroke="none" stroke-width="1" fill="none" fill-rule="evenodd">
        <g id="Athenian---Settings---v1.0" transform="translate(-111.000000, -12.000000)">
            <g id="Group-19-Copy" transform="translate(111.000000, 12.000000)">
                <g id="Group-3" transform="translate(0.000000, 0.429600)">
                    <mask id="mask-2" fill="white">
                        <use xlink:href="#path-1"></use>
                    </mask>
                    <g id="Clip-2"></g>
                    <path d="M38.3097683,0.091826087 C37.2516602,0.091826087 36.3942278,0.950608696 36.3942278,2.00921739 L36.3942278,2.00921739 C36.3942278,2.12765217 36.3890154,2.24504348 36.3780695,2.36086957 L36.3780695,2.36086957 C36.250888,3.77269565 35.3580116,4.96330435 34.1190347,5.51478261 L34.1190347,5.51478261 C33.6431467,5.7266087 33.1166988,5.844 32.5631467,5.844 L32.5631467,5.844 L25.9262548,5.844 C25.9272973,5.844 25.9272973,5.844 25.9272973,5.84504348 L25.9272973,5.84504348 C25.9048842,5.844 25.8814286,5.844 25.8590154,5.844 L25.8590154,5.844 C24.9635328,5.844 24.1034942,5.99843478 23.3039189,6.28173913 L23.3039189,6.28173913 C22.6773938,6.50347826 22.0883977,6.804 21.5489189,7.17234783 L21.5489189,7.17234783 C21.0183012,7.53443478 20.5356371,7.96173913 20.1129151,8.44226087 L20.1129151,8.44226087 C19.6901931,7.96173913 19.207529,7.53443478 18.6758687,7.17234783 L18.6758687,7.17234783 C18.1369112,6.804 17.5473938,6.50347826 16.92139,6.28173913 L16.92139,6.28173913 C16.1218147,5.99843478 15.2622973,5.844 14.3662934,5.844 L14.3662934,5.844 C14.3438803,5.844 14.3204247,5.844 14.2980116,5.84504348 L14.2980116,5.84504348 C14.2980116,5.844 14.2980116,5.844 14.2990541,5.844 L14.2990541,5.844 L7.66216216,5.844 C7.10913127,5.844 6.58216216,5.7266087 6.1057529,5.51478261 L6.1057529,5.51478261 C4.8672973,4.96330435 3.97494208,3.77269565 3.84723938,2.36086957 L3.84723938,2.36086957 C3.83629344,2.24504348 3.83108108,2.12765217 3.83108108,2.00921739 L3.83108108,2.00921739 C3.83108108,0.950608696 2.97364865,0.091826087 1.91554054,0.091826087 L1.91554054,0.091826087 C0.857432432,0.091826087 0,0.950608696 0,2.00921739 L0,2.00921739 C0,3.40591304 0.373204633,4.71652174 1.02527027,5.844 L1.02527027,5.844 L1.09250965,5.844 C1.08260618,5.86330435 1.071139,5.88208696 1.06019305,5.90295652 L1.06019305,5.90295652 C1.74926641,7.07113043 2.73909266,8.04156522 3.92333977,8.70521739 L3.92333977,8.70521739 C4.47741313,9.01617391 5.07370656,9.25930435 5.70179537,9.42417391 L5.70179537,9.42417391 C6.15110039,9.54365217 6.61604247,9.62243478 7.09245174,9.6573913 L7.09245174,9.6573913 C7.28061776,9.67095652 7.47034749,9.67878261 7.66216216,9.67878261 L7.66216216,9.67878261 C7.68457529,9.67878261 7.70803089,9.67878261 7.73044402,9.67773913 L7.73044402,9.67773913 C7.73044402,9.67878261 7.73044402,9.67878261 7.72835907,9.67878261 L7.72835907,9.67878261 C7.09818533,10.7718261 6.72758687,12.0349565 6.70517375,13.3826087 L6.70517375,13.3826087 C6.70413127,13.425913 6.70413127,13.4697391 6.70413127,13.5130435 L6.70413127,13.5130435 C6.70413127,17.085913 9.14559846,20.088 12.4481467,20.94 L12.4481467,20.94 C13.0621622,21.0986087 13.7043243,21.1826087 14.3662934,21.1826087 L14.3662934,21.1826087 C15.2622973,21.1826087 16.1218147,21.0286957 16.92139,20.7448696 L16.92139,20.7448696 C17.3545367,21.2822609 17.8351158,21.7794783 18.3579151,22.2297391 L18.3579151,22.2297391 C18.9005212,22.6987826 19.4884749,23.1172174 20.1129151,23.4782609 L20.1129151,23.4782609 C20.7373552,23.1172174 21.3242664,22.6987826 21.8673938,22.2297391 L21.8673938,22.2297391 C22.3901931,21.7794783 22.8712934,21.2822609 23.3039189,20.7448696 L23.3039189,20.7448696 C24.1034942,21.0286957 24.9635328,21.1826087 25.8590154,21.1826087 L25.8590154,21.1826087 C26.5209846,21.1826087 27.163668,21.0986087 27.7766409,20.94 L27.7766409,20.94 C31.0802317,20.088 33.5206564,17.085913 33.5206564,13.5130435 L33.5206564,13.5130435 C33.5206564,13.4697391 33.5206564,13.425913 33.5201351,13.3826087 L33.5201351,13.3826087 C33.4972008,12.0349565 33.1271236,10.7718261 32.4964286,9.67878261 L32.4964286,9.67878261 C32.4948649,9.67878261 32.4948649,9.67878261 32.4948649,9.67773913 L32.4948649,9.67773913 C32.517278,9.67878261 32.5407336,9.67878261 32.5631467,9.67878261 L32.5631467,9.67878261 C32.7549614,9.67878261 32.9436486,9.67095652 33.1323359,9.6573913 L33.1323359,9.6573913 C33.6092664,9.62243478 34.0742085,9.54365217 34.5235135,9.42417391 L34.5235135,9.42417391 C35.1510811,9.25930435 35.748417,9.01617391 36.3014479,8.70521739 L36.3014479,8.70521739 C37.485695,8.04156522 38.4755212,7.07113043 39.1651158,5.90295652 L39.1651158,5.90295652 C39.1541699,5.88208696 39.1427027,5.86330435 39.132278,5.844 L39.132278,5.844 L39.2005598,5.844 C39.851583,4.71652174 40.2247876,3.40591304 40.2247876,2.00921739 L40.2247876,2.00921739 C40.2247876,0.950608696 39.3673552,0.091826087 38.3097683,0.091826087 Z M25.2225869,17.2961739 C24.5647876,17.1850435 23.9648456,16.908 23.4655019,16.5073043 L23.4655019,16.5073043 C22.5903475,15.8045217 22.0279344,14.7245217 22.0279344,13.5130435 L22.0279344,13.5130435 C22.0279344,12.302087 22.5903475,11.222087 23.4655019,10.5193043 L23.4655019,10.5193043 C23.9648456,10.1186087 24.5647876,9.84156522 25.2225869,9.73095652 L25.2225869,9.73095652 C25.4284749,9.69704348 25.6421815,9.67878261 25.8590154,9.67878261 L25.8590154,9.67878261 C27.9413514,9.67878261 29.6369305,11.3426087 29.6885328,13.4144348 L29.6885328,13.4144348 C29.6900965,13.4473043 29.6900965,13.4801739 29.6900965,13.5130435 L29.6900965,13.5130435 C29.6900965,13.5464348 29.6900965,13.5798261 29.6885328,13.6121739 L29.6885328,13.6121739 C29.6369305,15.6845217 27.9413514,17.3483478 25.8590154,17.3483478 L25.8590154,17.3483478 C25.6421815,17.3483478 25.4284749,17.330087 25.2225869,17.2961739 L25.2225869,17.2961739 Z M10.5357336,13.6121739 C10.5346911,13.5798261 10.5346911,13.5464348 10.5346911,13.5130435 L10.5346911,13.5130435 C10.5346911,13.4801739 10.5346911,13.4473043 10.5357336,13.4144348 L10.5357336,13.4144348 C10.5883784,11.3426087 12.2834363,9.67878261 14.3662934,9.67878261 L14.3662934,9.67878261 L15.020444,9.67878261 C15.0141892,9.696 15.0079344,9.71321739 15.002722,9.73095652 L15.002722,9.73095652 C15.6605212,9.84156522 16.2604633,10.1186087 16.7592857,10.5193043 L16.7592857,10.5193043 C17.6354826,11.222087 18.1973745,12.302087 18.1973745,13.5130435 L18.1973745,13.5130435 C18.1973745,14.7245217 17.6354826,15.8045217 16.7592857,16.5073043 L16.7592857,16.5073043 C16.2604633,16.908 15.6605212,17.1850435 15.002722,17.2961739 L15.002722,17.2961739 C14.7957915,17.330087 14.5831274,17.3483478 14.3662934,17.3483478 L14.3662934,17.3483478 C12.2834363,17.3483478 10.5883784,15.6845217 10.5357336,13.6121739 L10.5357336,13.6121739 Z" id="Fill-1" fill="#FF6C37" mask="url(#mask-2)"></path>
                </g>
                <g id="Group-18" transform="translate(0.000000, 0.429600)">
                    <path d="M48.0919517,14.82 L53.0212761,14.82 L52.233168,10.6966957 C51.8511023,8.78191304 51.1755811,8.28626087 50.0278205,8.28626087 C49.7348861,8.28626087 49.5326467,8.28626087 49.1271255,8.33113043 L48.0919517,14.82 Z M53.4711023,17.1631304 L47.7322992,17.1631304 L47.1021255,21.1283478 L44.2884961,21.1283478 L46.8764305,6.34852174 C47.7547124,6.10069565 48.902473,5.96556522 50.0955811,5.96556522 C53.1114498,5.96556522 54.1242104,7.15982609 54.7543842,10.1113043 L57.1624923,21.1283478 L54.2367973,21.1283478 L53.4711023,17.1631304 Z" id="Fill-4" fill="#121343"></path>
                    <path d="M57.7042645,9.18735652 L59.2570251,9.18735652 L59.2570251,6.7764 L62.0482413,5.78509565 L62.0482413,9.18735652 L65.6265232,9.18735652 L65.0416969,11.3953565 L62.0482413,11.3953565 L62.0482413,15.3605739 C62.0482413,18.0417913 63.0610019,19.1004 65.8292838,19.1004 L64.7492838,21.3308348 C61.1475463,21.3308348 59.2570251,19.4609217 59.2570251,15.5635304 L59.2570251,11.3953565 L57.118917,11.3953565 L57.7042645,9.18735652 Z" id="Fill-6" fill="#121343"></path>
                    <path d="M69.9715946,4.68151304 L69.9715946,9.54777391 C71.2991815,9.05212174 72.2671158,8.93942609 73.2355714,8.93942609 C75.9360927,8.93942609 77.8266139,9.8409913 77.8266139,13.2881217 L77.8266139,21.1282957 L75.0129846,21.1282957 L75.0129846,13.4905565 C75.0129846,11.8230783 74.3603977,11.1703826 72.9197027,11.1703826 C71.5921158,11.1703826 71.0067683,11.3952522 69.9715946,11.7333391 L69.9715946,21.1282957 L67.1803784,21.1282957 L67.1803784,5.10933913 L69.9715946,4.68151304 Z" id="Fill-8" fill="#121343"></path>
                    <path d="M82.5993591,13.9862087 L88.045749,13.9862087 C88.045749,12.2065565 87.2581622,11.1249913 85.5698803,11.1249913 C83.9947066,11.1249913 82.8693591,11.9362957 82.5993591,13.9862087 L82.5993591,13.9862087 Z M82.6665985,16.2844696 C83.0267722,17.9743826 84.1969459,19.0329913 87.0105753,19.0329913 C88.0009228,19.0329913 89.1486834,18.8529913 90.1843784,18.5827304 L89.4192046,20.9477739 C88.3386834,21.1956 87.3931622,21.2858609 86.3804015,21.2858609 C82.2840116,21.2858609 79.7857297,19.5510783 79.7857297,15.0223826 C79.7857297,10.7420348 81.9238378,8.9169913 85.5698803,8.9169913 C88.9917915,8.9169913 90.8145521,10.7196 90.8145521,14.4145565 C90.8145521,14.977513 90.792139,15.5858609 90.5893784,16.2844696 L82.6665985,16.2844696 Z" id="Fill-10" fill="#121343"></path>
                    <path d="M92.7736158,21.1282435 L92.7736158,15.8112 C92.7736158,13.5358957 92.9091371,11.6430261 93.1113764,9.68285217 C94.6641371,9.21015652 96.3294846,8.91693913 98.1303533,8.91693913 C102.227264,8.91693913 103.667438,10.2463304 103.667438,13.5583304 L103.667438,21.1282435 L100.853809,21.1282435 L100.853809,13.7158957 C100.853809,11.8235478 100.291396,11.1703304 98.1527664,11.1703304 C97.2077664,11.1703304 96.3070714,11.3049391 95.6768977,11.4854609 C95.6096583,12.6118957 95.564832,13.9861565 95.564832,15.8112 L95.564832,21.1282435 L92.7736158,21.1282435 Z" id="Fill-12" fill="#121343"></path>
                    <mask id="mask-4" fill="white">
                        <use xlink:href="#path-3"></use>
                    </mask>
                    <g id="Clip-15"></g>
                    <path d="M106.279402,21.1283478 L109.093031,21.1283478 L109.093031,9.18730435 L106.279402,9.18730435 L106.279402,21.1283478 Z M106.14388,7.85791304 L109.137336,7.85791304 L109.137336,4.74886957 L106.14388,4.74886957 L106.14388,7.85791304 Z" id="Fill-14" fill="#121343" mask="url(#mask-4)"></path>
                    <path d="M118.681158,18.8077043 L118.681158,16.2845739 C117.871158,16.1040522 117.15029,16.0591826 116.182876,16.0591826 C114.382529,16.0591826 113.684073,16.4645739 113.684073,17.5685739 C113.684073,18.5374435 114.314768,19.0555304 116.250637,19.0555304 C116.970463,19.0555304 117.713745,19.0330957 118.681158,18.8077043 M116.137529,21.2859652 C112.514421,21.2859652 110.871486,20.0692696 110.871486,17.5685739 C110.871486,14.8649217 112.717181,13.9638783 115.777876,13.9638783 C116.633224,13.9638783 117.736158,14.0311826 118.704093,14.166313 L118.704093,13.738487 C118.704093,11.8231826 117.285811,11.1699652 115.124768,11.1699652 C114.022355,11.1699652 113.009073,11.2377913 111.951486,11.530487 L112.491486,9.23222609 C113.324421,9.05222609 114.314768,8.91709565 115.620463,8.91709565 C119.288919,8.91709565 121.471853,10.3591826 121.471853,13.8736174 C121.471853,16.0591826 121.471853,18.3120522 121.314961,20.5200522 C120.009266,20.9254435 118.253745,21.2859652 116.137529,21.2859652" id="Fill-16" fill="#121343" mask="url(#mask-4)"></path>
                    <path d="M123.858382,21.1282435 L123.858382,15.8112 C123.858382,13.5358957 123.993903,11.6430261 124.196143,9.68285217 C125.749425,9.21015652 127.414772,8.91693913 129.21512,8.91693913 C133.312031,8.91693913 134.752205,10.2463304 134.752205,13.5583304 L134.752205,21.1282435 L131.939097,21.1282435 L131.939097,13.7158957 C131.939097,11.8235478 131.376683,11.1703304 129.238054,11.1703304 C128.293054,11.1703304 127.392359,11.3049391 126.762185,11.4854609 C126.694425,12.6118957 126.649598,13.9861565 126.649598,15.8112 L126.649598,21.1282435 L123.858382,21.1282435 Z" id="Fill-17" fill="#121343" mask="url(#mask-4)"></path>
                </g>
            </g>
        </g>
    </g>
</svg>