<?xml version="1.0" encoding="UTF-8"?>
<svg width="145px" height="24px" viewBox="0 0 145 24" version="1.1" xmlns="http://www.w3.org/2000/svg" xmlns:xlink="http://www.w3.org/1999/xlink">
    <!-- Generator: Sketch 62 (91390) - https://sketch.com -->
    <title>Group 18</title>
    <desc>Created with Sketch.</desc>
    <defs>
        <polygon id="path-1" points="0 0.00819047619 41.142819 0.00819047619 41.142819 23.9047619 0 23.9047619"></polygon>
        <polygon id="path-3" points="0 23.9918095 144.20581 23.9918095 144.20581 0.0952380952 0 0.0952380952"></polygon>
    </defs>
    <g id="Tabs" stroke="none" stroke-width="1" fill="none" fill-rule="evenodd">
        <g id="Athenian---Overview---v1.3" transform="translate(-111.000000, -12.000000)">
            <g id="Group-18" transform="translate(111.000000, 12.000000)">
                <g id="Group-3" transform="translate(0.000000, 0.087048)">
                    <mask id="mask-2" fill="white">
                        <use xlink:href="#path-1"></use>
                    </mask>
                    <g id="Clip-2"></g>
                    <path d="M30.3662476,13.8236762 C30.3129143,15.9407238 28.5790095,17.640819 26.4489143,17.640819 C26.2269143,17.640819 26.0092,17.6223429 25.7980571,17.587581 C25.1254857,17.4742476 24.5114857,17.1912952 24.0011048,16.7819619 C23.1052952,16.0637714 22.5306286,14.9600571 22.5306286,13.7225333 C22.5306286,12.4849143 23.1052952,11.3812 24.0011048,10.6629143 C24.5114857,10.2536762 25.1254857,9.97062857 25.7980571,9.85739048 C26.0092,9.82262857 26.2269143,9.80405714 26.4489143,9.80405714 C28.5790095,9.80405714 30.3129143,11.5042476 30.3662476,13.6212 C30.3673905,13.6550095 30.3673905,13.6887238 30.3673905,13.7225333 C30.3673905,13.7561524 30.3673905,13.7899619 30.3662476,13.8236762 M17.1417714,16.7819619 C16.6312952,17.1912952 16.0173905,17.4742476 15.3447238,17.587581 C15.1336762,17.6223429 14.9158667,17.640819 14.6938667,17.640819 C12.5637714,17.640819 10.8298667,15.9407238 10.7766286,13.8236762 C10.7754857,13.7899619 10.7754857,13.7561524 10.7754857,13.7225333 C10.7754857,13.6887238 10.7754857,13.6550095 10.7766286,13.6212 C10.8298667,11.5042476 12.5637714,9.80405714 14.6938667,9.80405714 C14.9158667,9.80405714 15.1336762,9.82262857 15.3447238,9.85739048 C16.0173905,9.97062857 16.6312952,10.2536762 17.1417714,10.6629143 C18.037581,11.3812 18.6122476,12.4849143 18.6122476,13.7225333 C18.6122476,14.9600571 18.037581,16.0637714 17.1417714,16.7819619 M39.1836762,0.00815238095 C38.1017714,0.00815238095 37.2245333,0.885390476 37.2245333,1.96739048 C37.2245333,2.08815238 37.2190095,2.20786667 37.2081524,2.32653333 C37.077581,3.76872381 36.1643429,4.98558095 34.8973905,5.54939048 C34.4109143,5.7659619 33.8721524,5.88567619 33.3060571,5.88567619 L26.517581,5.88567619 C26.5186286,5.88567619 26.5186286,5.88567619 26.5186286,5.88681905 C26.4957714,5.88567619 26.4717714,5.88567619 26.4489143,5.88567619 C25.5325333,5.88567619 24.6531048,6.04358095 23.8356762,6.33310476 C23.1945333,6.55948571 22.5926286,6.8664381 22.040819,7.24300952 C21.4976762,7.61310476 21.0034857,8.04958095 20.5713905,8.5404381 C20.1392952,8.04958095 19.6452,7.61310476 19.1020571,7.24300952 C18.5502476,6.8664381 17.9482476,6.55948571 17.3072,6.33310476 C16.4897714,6.04358095 15.6103429,5.88567619 14.6938667,5.88567619 C14.6710095,5.88567619 14.6470095,5.88567619 14.6242476,5.88681905 C14.6242476,5.88567619 14.6242476,5.88567619 14.6252952,5.88567619 L7.83672381,5.88567619 C7.27072381,5.88567619 6.7319619,5.7659619 6.24539048,5.54939048 C4.97853333,4.98558095 4.06529524,3.76872381 3.93472381,2.32653333 C3.92377143,2.20786667 3.91834286,2.08815238 3.91834286,1.96739048 C3.91834286,0.885390476 3.04110476,0.00815238095 1.9592,0.00815238095 C0.877295238,0.00815238095 -3.80952381e-05,0.885390476 -3.80952381e-05,1.96739048 C-3.80952381e-05,3.39424762 0.382057143,4.73300952 1.04815238,5.88567619 C1.06015238,5.90529524 1.07205714,5.9259619 1.08405714,5.94558095 C1.78939048,7.13958095 2.80158095,8.1312 4.01300952,8.80929524 C4.57900952,9.12710476 5.18967619,9.37529524 5.83186667,9.5439619 C6.2912,9.66586667 6.76681905,9.74634286 7.2544381,9.78234286 C7.44710476,9.7964381 7.64081905,9.80405714 7.83672381,9.80405714 C7.85958095,9.80405714 7.88358095,9.80405714 7.9064381,9.80300952 C7.9064381,9.80405714 7.9064381,9.80405714 7.90529524,9.80405714 C7.25986667,10.9209143 6.88100952,12.2116762 6.85824762,13.5885333 C6.85710476,13.6332 6.85710476,13.6778667 6.85710476,13.7225333 C6.85710476,17.3731048 9.3539619,20.4403429 12.7325333,21.3110095 C13.3594857,21.4732 14.016819,21.5592 14.6938667,21.5592 C15.6103429,21.5592 16.4897714,21.4012952 17.3072,21.1117714 C17.7501524,21.6604381 18.2421524,22.1687238 18.7766286,22.6291048 C19.3316762,23.1079619 19.9324381,23.5358667 20.5713905,23.904819 C21.2103429,23.5358667 21.8112,23.1079619 22.3662476,22.6291048 C22.9006286,22.1687238 23.3926286,21.6604381 23.8356762,21.1117714 C24.6531048,21.4012952 25.5325333,21.5592 26.4489143,21.5592 C27.1260571,21.5592 27.7833905,21.4732 28.4103429,21.3110095 C31.7889143,20.4403429 34.2856762,17.3731048 34.2856762,13.7225333 C34.2856762,13.6778667 34.2856762,13.6332 34.2846286,13.5885333 C34.2617714,12.2116762 33.8830095,10.9209143 33.2374857,9.80405714 C33.2364381,9.80405714 33.2364381,9.80405714 33.2364381,9.80300952 C33.2592952,9.80405714 33.2832952,9.80405714 33.3060571,9.80405714 C33.5020571,9.80405714 33.6957714,9.7964381 33.8883429,9.78234286 C34.3760571,9.74634286 34.8516762,9.66586667 35.3110095,9.5439619 C35.9532,9.37529524 36.5637714,9.12710476 37.1298667,8.80929524 C38.3412,8.1312 39.3534857,7.13958095 40.0587238,5.94558095 C40.0707238,5.9259619 40.0826286,5.90529524 40.0946286,5.88567619 C40.760819,4.73300952 41.142819,3.39424762 41.142819,1.96739048 C41.142819,0.885390476 40.2654857,0.00815238095 39.1836762,0.00815238095" id="Fill-1" fill="#FF6C37" mask="url(#mask-2)"></path>
                </g>
                <path d="M54.4246571,15.2140095 L52.0412286,9.05753333 L49.6578,15.2140095 L54.4246571,15.2140095 Z M55.706181,18.519819 L48.388181,18.519819 L47.2260857,21.5142 L43.2016095,21.5142 L50.9151333,3.11677143 L53.1910381,3.11677143 L60.8685619,21.5142 L56.8678952,21.5142 L55.706181,18.519819 Z" id="Fill-4" fill="#121343"></path>
                <polygon id="Fill-6" fill="#121343" points="62.7314857 12.9980571 60.5154857 12.9980571 60.5154857 9.97986667 62.7314857 9.97986667 62.7314857 5.81158095 66.4083429 5.81158095 66.4083429 9.97986667 68.6124381 9.97986667 68.6124381 12.9980571 66.4083429 12.9980571 66.4083429 21.5142476 62.7314857 21.5142476"></polygon>
                <path d="M70.4494952,3.11673333 L74.1263524,3.11673333 L74.1263524,11.2135905 C75.0846381,10.3032095 76.2344476,9.7401619 77.5881619,9.7401619 C80.8460667,9.7401619 82.1752095,11.6087333 82.1752095,15.261781 L82.1752095,21.5142571 L78.4983524,21.5142571 L78.4983524,15.261781 C78.4983524,13.6928286 78.0551143,12.8304476 76.6776857,12.8304476 C75.2286381,12.8304476 74.1263524,14.1599714 74.1263524,15.7532095 L74.1263524,21.5142571 L70.4494952,21.5142571 L70.4494952,3.11673333 Z" id="Fill-8" fill="#121343"></path>
                <path d="M87.6878667,14.231781 L92.2034857,14.231781 C91.9998667,13.213781 91.0416762,12.5311143 89.9874857,12.5311143 C88.7896762,12.5311143 88.0352952,13.1299714 87.6878667,14.231781 M92.8140571,17.2263524 L95.281581,19.0829238 C94.1317714,20.7595905 92.3232952,21.7538762 90.2870095,21.7538762 C86.5979619,21.7538762 83.7832,19.5736857 83.7832,15.7532095 C83.7832,12.4352095 86.4781524,9.7401619 89.7958667,9.7401619 C93.8921524,9.7401619 95.7966286,12.5311143 95.7966286,16.2440667 L87.4723429,16.2440667 C87.5921524,17.8969238 88.6820571,18.5678762 90.2870095,18.5678762 C91.2691048,18.5678762 92.0954857,18.1485429 92.8140571,17.2263524" id="Fill-10" fill="#121343"></path>
                <path d="M97.1510381,9.97982857 L100.828181,9.97982857 L100.828181,11.2135429 C101.786467,10.3032571 102.936276,9.74020952 104.28961,9.74020952 C107.547514,9.74020952 108.877133,11.608781 108.877133,15.2618286 L108.877133,21.5142095 L105.200276,21.5142095 L105.200276,15.2618286 C105.200276,13.692781 104.756943,12.8304952 103.379419,12.8304952 C101.930086,12.8304952 100.828181,14.160019 100.828181,15.7531619 L100.828181,21.5142095 L97.1510381,21.5142095 L97.1510381,9.97982857 Z" id="Fill-12" fill="#121343"></path>
                <mask id="mask-4" fill="white">
                    <use xlink:href="#path-3"></use>
                </mask>
                <g id="Clip-15"></g>
                <path d="M111.554952,21.5141905 L115.23181,21.5141905 L115.23181,9.97980952 L111.554952,9.97980952 L111.554952,21.5141905 Z M111.039619,5.66790476 C111.039619,4.36238095 112.093714,3.30838095 113.399143,3.30838095 C114.740667,3.30838095 115.771048,4.36238095 115.771048,5.66790476 C115.771048,7.02133333 114.740667,8.05133333 113.399143,8.05133333 C112.093714,8.05133333 111.039619,7.02133333 111.039619,5.66790476 L111.039619,5.66790476 Z" id="Fill-14" fill="#121343" mask="url(#mask-4)"></path>
                <path d="M126.742743,15.7531714 C126.742743,14.1599333 125.473124,12.8784095 123.880076,12.8784095 C122.287124,12.8784095 121.005505,14.1599333 121.005505,15.7531714 C121.005505,17.346219 122.287124,18.6155524 123.880076,18.6155524 C125.473124,18.6155524 126.742743,17.346219 126.742743,15.7531714 L126.742743,15.7531714 Z M130.431505,9.9798381 L130.431505,21.514219 L126.994362,21.514219 L126.826552,20.3644095 C125.844457,21.2266952 124.562933,21.7539333 123.08979,21.7539333 C119.759695,21.7539333 117.376267,19.0586952 117.376267,15.7531714 C117.376267,12.4351714 119.759695,9.74021905 123.08979,9.74021905 C124.526838,9.74021905 125.772648,10.2313619 126.742743,11.0578381 L126.742743,9.9798381 L130.431505,9.9798381 Z" id="Fill-16" fill="#121343" mask="url(#mask-4)"></path>
                <path d="M132.480095,9.97982857 L136.156952,9.97982857 L136.156952,11.2135429 C137.115238,10.3032571 138.265048,9.74020952 139.618381,9.74020952 C142.876286,9.74020952 144.20581,11.608781 144.20581,15.2618286 L144.20581,21.5142095 L140.529048,21.5142095 L140.529048,15.2618286 C140.529048,13.692781 140.085714,12.8304952 138.708286,12.8304952 C137.258857,12.8304952 136.156952,14.160019 136.156952,15.7531619 L136.156952,21.5142095 L132.480095,21.5142095 L132.480095,9.97982857 Z" id="Fill-17" fill="#121343" mask="url(#mask-4)"></path>
            </g>
        </g>
    </g>
</svg>