<svg xmlns="http://www.w3.org/2000/svg" viewBox="0 0 200 122.92"><defs><style>.cls-1{isolation:isolate;}.cls-15,.cls-18,.cls-2{fill:#ffe3d4;}.cls-3{fill:#f39e7e;}.cls-10,.cls-4{fill:#ff9052;}.cls-11,.cls-18,.cls-4{opacity:0.7;}.cls-11,.cls-5{fill:#ffc7a9;}.cls-6{fill:#cbc7ff;opacity:0.58;}.cls-15,.cls-18,.cls-6{mix-blend-mode:multiply;}.cls-7{fill:#bf571d;}.cls-8{fill:#803a14;}.cls-9{fill:#ffac7d;}.cls-12{fill:#ff7427;}.cls-13{opacity:0.16;}.cls-14{fill:#fff0e9;}.cls-15{opacity:0.63;}.cls-16{fill:#ffdecb;}.cls-17{fill:#401d0a;}</style></defs><g class="cls-1"><g id="Capa_2" data-name="Capa 2"><g id="Capa_1-2" data-name="Capa 1"><path class="cls-2" d="M163,59A63.16,63.16,0,0,0,37,59,43.29,43.29,0,0,0,5.5,122.92h189A43.29,43.29,0,0,0,163,59Z"/><rect class="cls-2" x="23.52" y="79.37" width="152.95" height="43.55"/><path class="cls-2" d="M87.71,58.51c2.9,7.12,4,17.22,4.4,24.46L76.43,84.53Z"/><path class="cls-3" d="M132.08,81.3s-1.25-3.07-7.28-2.64c-5.24.37-25.64,3.68-30.9,4.54-2.06,3.2-4.16,6.37-6.41,9.43,9.35,3.51,28.88-6.33,32-7.2,3.47-1,5.2-1.71,6.85-1.82s2.69.62,3,.21S128,82.38,128,82.38c.66.06,2.42,1.46,2.59.92S129,81.68,129,81.68c.8.06,2.07,1.44,2.49,1.12s-1-1.77-1-1.77Z"/><path class="cls-4" d="M132.08,81.3s-1.25-3.07-7.28-2.64c-5.24.37-25.64,3.68-30.9,4.54-2.06,3.2-4.16,6.37-6.41,9.43,9.35,3.51,28.88-6.33,32-7.2,3.47-1,5.2-1.71,6.85-1.82s2.69.62,3,.21S128,82.38,128,82.38c.66.06,2.42,1.46,2.59.92S129,81.68,129,81.68c.8.06,2.07,1.44,2.49,1.12s-1-1.77-1-1.77Z"/><path class="cls-5" d="M71.76,57.42c1.54,5.59,8.58,8,10.33,8,3.14-.16,1.73.85,3.85-1.06-.41-6-1.06-7.43.14-9.58,1.32-2.37,11.37-12.16,11.37-12.16l-8.52-7.72s-9.75,9.83-11.58,11.28c-1.11.87-4.78,1.2-6.68,1.86C70,51.4,70.84,54.07,71.76,57.42Z"/><path class="cls-6" d="M89.32,48.88a8.78,8.78,0,0,0,1.11.82c3.19-3.55,6.25-6.82,6.25-6.82l-6.27-5.32C87.27,41.68,86.38,46.34,89.32,48.88Z"/><path class="cls-7" d="M91.48,25.4c-2.53,1.68-6.09,3-4.7,11.51l4,1,2.06-8.43Z"/><path class="cls-5" d="M102.79,42.8C101,45.64,98.47,49,96,49.62c-1.64.41-3-.45-5.43-3s-3.27-7-.31-11.74,6.54-7.78,11.63-4.58C107.49,33.86,105.76,38.1,102.79,42.8Z"/><path class="cls-8" d="M101.51,40a.54.54,0,0,1-.76.17.55.55,0,1,1,.59-.94A.55.55,0,0,1,101.51,40Z"/><path class="cls-9" d="M91.22,40a3.95,3.95,0,1,1,4.21-6.68Z"/><path class="cls-10" d="M92.22,38.37a2.08,2.08,0,1,1,2.21-3.52Z"/><path class="cls-9" d="M99.36,42.23a1.73,1.73,0,1,1-.54-2.38A1.72,1.72,0,0,1,99.36,42.23Z"/><path class="cls-5" d="M103.29,40.68l.34,4a.63.63,0,0,1-.87.65l-2-.79Z"/><path class="cls-7" d="M95,34.12l-1.7,2.6.89.63a22.48,22.48,0,0,1,1.92-2.64Z"/><path class="cls-7" d="M106.61,29.1c-1.42-2.66-3.81-2.24-8.42-4.46-5.29-2.54-8.85,2-9.61,4.35-1.4,4.25,5.09,5.91,6.73,6.16,2.18.32,4.22-1.25,6.46-3.43,0,0,1.88.3,3.84,3.88C107.37,35.35,108.75,33.11,106.61,29.1Z"/><path class="cls-7" d="M100.45,36.76a4.78,4.78,0,0,1,1.8.59,4.35,4.35,0,0,1,.79.56,2.9,2.9,0,0,1,.34.36l.15.2.06.1,0,0a0,0,0,0,0,0,0h0l0,0h0a.17.17,0,0,0-.14,0,.17.17,0,1,1,.22.25.17.17,0,0,1-.14,0l-.06,0,0,0-.06,0-.32-.21-.37-.24L101.9,38l-.78-.43c-.26-.15-.52-.29-.78-.47a.18.18,0,0,1,0-.24A.18.18,0,0,1,100.45,36.76Z"/><path class="cls-9" d="M99.71,46.29l.35.31c-.11.14-.23.3-.37.46a4.36,4.36,0,0,1-.53-.45c-.64-.61-1-1.24-.68-1.4S99.07,45.68,99.71,46.29Z"/><path class="cls-3" d="M114.67,103.29c.55,2.95,3,15.14,3,17.67,0,2.15,5.85,1.13,9.81,1.16,5.06,0,10,.8,9.73-1-.16-1.17-8.16-1-12-6.42L123.13,104Z"/><path class="cls-11" d="M114.67,103.29c.55,2.95,3,15.14,3,17.67,0,2.15,5.85,1.13,9.81,1.16,5.06,0,10,.8,9.73-1-.16-1.17-8.16-1-12-6.42L123.13,104Z"/><path class="cls-12" d="M76.28,92.09c4.93-7.27,17.26-27.87,31.26-26.46,12.8,1.29,17.87,39.05,17.87,39.05l-12,3.8L105.07,82,81.76,114.3l-16-6.17Z"/><path class="cls-12" d="M76.28,92.09c4.93-7.27,17.26-27.87,31.26-26.46,12.8,1.29,17.87,39.05,17.87,39.05l-12,3.8L105.07,82,81.76,114.3l-16-6.17Z"/><path class="cls-13" d="M105.93,72.86c7.95.24,12.93,32.48,13.14,33.85l-.48.08c0-.09-1.29-8.44-3.51-16.72-2.9-10.85-6.07-16.64-9.16-16.73h-.1c-7.65,0-22.93,26.27-23.09,26.54l-.41-.25C83,98.53,98,72.61,105.93,72.86Z"/><path class="cls-12" d="M38.8,91.65c-3.13,11-3.84,28.11,7.12,30.52,6,1.32,13.87.48,34.13.6,20,.12,33.05,1.09,32.93-9.89s-24.36-8.2-29.55-8.69-29.19-.72-29.19-.72Z"/><path class="cls-14" d="M86,54.92s-1.49,2.54-6.27.06-6.81-8-6.81-8S58.1,50.16,48,68.85c-6.45,11.91-11.58,29-11.58,29s6.91,8.4,34.9,5.87c0,0,8.4-16,12.74-23.72S91.93,65.78,86,54.92Z"/><path class="cls-15" d="M79.49,61.54c5.24,5.9,7.08,15.94,7.08,15.94L83.7,81.1Z"/><path class="cls-16" d="M62.93,66.56c-2.34,6.8,4.18,29.27,9.81,34.34l5.74-10.62Z"/><path class="cls-17" d="M144.94,68.11l-.18-.06L137.54,91.3h-25v.24a1.16,1.16,0,0,0,1.15,1.16h23.85a1.41,1.41,0,0,0,1.37-1.12l6.83-22A1.2,1.2,0,0,0,144.94,68.11Z"/><path class="cls-9" d="M79,64.87c2.52,5.56,9,30.36,9,30.36s24.51-10,30.3-11.75,7.68,1,7.68,1l-1.62.09s1.74,1.1,1.41,1.5-1.89-.67-2.68-.55c0,0,1.94.67,1.89,1.24s-2.08-.41-2.74-.32c0,0,1.71.67,1.55,1.12s-1.34,0-2.93.45-3.11,1.56-6.28,3.29-24.25,19.24-33,12.77S62.44,74.28,62.93,66.56C63.54,56.72,74.18,54.31,79,64.87Z"/><path class="cls-12" d="M54.52,104l.24,0C56,98,62.43,79.05,64.88,75l-.21-.13C62.22,78.94,55.74,98,54.52,104Z"/><path class="cls-18" d="M85.82,87.26c0-.17-.09-.33-.13-.5l-2.26-2.47-13.11,3L71.46,91c.42.76.85,1.49,1.28,2.22A30.43,30.43,0,0,0,85.82,87.26Z"/><path class="cls-14" d="M86.4,86.73c-2.28-8.3-5.39-19.12-7-22.68-5.22-11.51-16.81-8.88-17.48,1.84-.32,5,3.56,16,8.77,25.65C75.13,91.05,83.64,88.15,86.4,86.73Z"/><path class="cls-7" d="M106.43,122.76l1.8-22.38a5.74,5.74,0,0,1,5.69-5.23h39.75a5.73,5.73,0,0,1,5.68,5.22l1.84,22.39h2.42l-1.85-22.59a8.16,8.16,0,0,0-8.09-7.43H113.92a8.16,8.16,0,0,0-8.09,7.44L104,122.76Z"/><path class="cls-12" d="M69.18,88.84l0,.24c6.3-.88,16.41-4.8,16.52-4.84L85.64,84C85.54,84.06,75.45,88,69.18,88.84Z"/><path class="cls-12" d="M86.78,56.58s-.94,1.83-6.07,1.06c-4.94-.75-8.48-5.59-9.79-10l-.23.07A17.52,17.52,0,0,0,73.36,53a12.53,12.53,0,0,0-3.84,2.55,9.6,9.6,0,0,0-2,.37c-3.38,1-4.76,4.17-5.33,6.64a18.16,18.16,0,0,0,.19,8.55l.23-.07c-1.31-4.42-.77-13.18,5-14.89a9.94,9.94,0,0,1,7.74,1,8.39,8.39,0,0,1,4.09,4.42l.24-.06c-.41-1.55-2.1-3.39-4.21-4.57a10.48,10.48,0,0,0-5.51-1.38,11.94,11.94,0,0,1,3.62-2.33,11.39,11.39,0,0,0,7.17,4.65,15.82,15.82,0,0,0,2.39.19c3.24,0,3.9-1.32,3.93-1.39Z"/><circle class="cls-2" cx="169.22" cy="52.97" r="2.36"/><circle class="cls-2" cx="173.12" cy="40.68" r="1.24"/><circle class="cls-2" cx="184.95" cy="47.16" r="1.32"/><circle class="cls-2" cx="27.84" cy="48.6" r="1.58"/><circle class="cls-2" cx="20.96" cy="34.29" r="1.31"/><circle class="cls-2" cx="11.39" cy="49.52" r="2.36"/></g></g></g></svg>