<svg xmlns="http://www.w3.org/2000/svg" viewBox="0 0 222.77 135.65"><defs><style>.cls-1{isolation:isolate;}.cls-2{fill:#ff9052;}.cls-3{fill:#ffe3d4;}.cls-4{fill:none;}.cls-5{fill:#ffc7a9;}.cls-6{fill:#c2c2c2;}.cls-7{fill:#bf571d;}.cls-8{fill:#134c83;opacity:0.17;mix-blend-mode:multiply;}.cls-9{fill:#ffac7d;}</style></defs><g class="cls-1"><g id="Capa_2" data-name="Capa 2"><g id="Capa_1-2" data-name="Capa 1"><rect class="cls-2" x="145.64" y="6.05" width="36.31" height="34.29"/><path class="cls-3" d="M182,40.35H145.64V4H182Zm-32.31-4H178V8H149.64Z"/><rect class="cls-2" x="191.87" y="5.92" width="14.52" height="2" transform="translate(5.6 54.32) rotate(-15.75)"/><rect class="cls-2" x="207.85" y="9.31" width="2" height="27.76" transform="translate(167.92 229.3) rotate(-85.1)"/><rect class="cls-2" x="195.65" y="30.45" width="2" height="14.24" transform="translate(101.09 213.5) rotate(-72.3)"/><rect class="cls-2" x="123.56" y="31.7" width="14.52" height="2" transform="translate(-3.89 38.66) rotate(-16.57)"/><rect class="cls-2" x="121.95" y="3.64" width="2" height="27.76" transform="translate(96.69 138.9) rotate(-85.9)"/><rect class="cls-2" x="132.09" y="-4.09" width="2" height="14.24" transform="translate(91.52 129.49) rotate(-73.11)"/><path class="cls-4" d="M129.76,76.3c0-.12,0-.24,0-.35C129.75,76.06,129.75,76.18,129.76,76.3Z"/><path class="cls-4" d="M88.21,126.11,85.74,118c-.4,5.64-.29,12.06-.1,17.7h1.14C87.72,131.27,88.3,127.88,88.21,126.11Z"/><path class="cls-4" d="M129.61,78.68l0-.26Z"/><path class="cls-4" d="M129.46,79.65c0-.05,0-.09,0-.14S129.47,79.6,129.46,79.65Z"/><path class="cls-4" d="M129.76,76.72c0,.09,0,.19,0,.28C129.75,76.91,129.76,76.81,129.76,76.72Z"/><path class="cls-4" d="M129.69,75.11s0-.1,0-.14S129.68,75.06,129.69,75.11Z"/><path class="cls-4" d="M129.73,75.55a2.12,2.12,0,0,1,0-.24A2.12,2.12,0,0,0,129.73,75.55Z"/><path class="cls-4" d="M129.71,77.79a2.46,2.46,0,0,1,0-.28A2.64,2.64,0,0,0,129.71,77.79Z"/><path class="cls-5" d="M109,36.67l1.84-1a.8.8,0,0,0,.06-1.36l-3.42-2.33c.09.27.19.54.29.82A38.22,38.22,0,0,1,109,36.67Z"/><path class="cls-5" d="M108.48,37l.52-.29a38.22,38.22,0,0,0-1.23-3.91c-.1-.28-.2-.55-.29-.82l-.73-.5Z"/><path class="cls-5" d="M85.74,118l-2.13-7c-1.85-2.08-8-9.35-9.56-16.17-3.88,9.5-5.35,24.76-3.91,40.88h15.5C85.45,130,85.34,123.59,85.74,118Z"/><path class="cls-5" d="M112.23,71.07a4.73,4.73,0,0,1-1.41-1.86c-1-2-4-9.83-6.85-17.13a1,1,0,0,0,.17,0c6.08-1.55,6.78-8.06,4.86-15.39l-.52.29-1.73-5.52.73.5c-1.53-4.23-2.73-8.09-5.11-10.32a2.93,2.93,0,0,1-1.81.44,3.87,3.87,0,0,0-1.59.3c.17.64.32,1.28.44,1.92.48,2.65-.52,6.5-2.08,10.5l1.15,3.13.79,2.15,1.23,3.33a6.67,6.67,0,0,1-6.58-1.15c-.11.23-.23.46-.35.69a2.44,2.44,0,0,0-.14.28l0,.06c-.44.84-.88,1.66-1.3,2.42L92,45.9l-.52.93-.15.26-.51.9-.07.13-.56,1-.07.11-.42.71-.12.2c-.12.2-.23.39-.34.56l-.07.13-.35.57,0,0-.24.39-.06.09-.12.19,0,.06,0,.07-.09.11c-.19.24-.7.91-1.57,2.16,1.69,7.3,3.71,16.36,3.85,18.62.1,1.54-.8,3-2.35,4.5C90.18,76.86,106.25,71.37,112.23,71.07Zm-7-40.26a.67.67,0,1,1-.51.8A.67.67,0,0,1,105.26,30.81Z"/><path class="cls-6" d="M179.34,85.37h0l-.1.17A1.53,1.53,0,0,1,179.34,85.37Z"/><path class="cls-6" d="M176.81,88.68l-.1.11Z"/><path class="cls-6" d="M173.34,91.38h0Z"/><path class="cls-6" d="M175.16,90.17h0Z"/><path class="cls-6" d="M178.25,87l-.19.27Z"/><path class="cls-7" d="M12.84,96.25c-.35.1-.7.19-1,.25C12.14,96.44,12.49,96.35,12.84,96.25Z"/><path class="cls-7" d="M15.46,95.25c-.35.17-.69.32-1,.46C14.77,95.57,15.11,95.42,15.46,95.25Z"/><path class="cls-7" d="M16.86,94.51q-.59.34-1.17.63Q16.27,94.86,16.86,94.51Z"/><path class="cls-7" d="M11.71,96.53c-.36.06-.7.1-1,.13C11,96.63,11.35,96.59,11.71,96.53Z"/><path class="cls-7" d="M12.15,89.16c3.36-6,6.45-5.16,11.79-8.43s5.6-9.27,10.41-14,12.09-3.63,16.37-5.37,7.8-7.29,11.37-12.7,13.47-3,21.17-4.75a24.93,24.93,0,0,0,8.26-3.73c-.65-1.19-1.26-2.41-1.79-3.66-3.68-8.63-8.55-12.08.44-15.42,6.25-2.32,9.81-1.72,12.2.51,2-1.3,1.63-5.14.09-7.42-1.66-2.47-6.28-3.68-10.87-2.1-2.57-1.28-5.74-1.52-9.48-.1C73.84,15.15,76.29,19.83,69,24.92s-9.9,3.73-17.47,6.29S39.85,37.48,36.16,44.07,32.21,54.7,25.43,57.63s-10,2.58-15.79,9.31-5.35,9.18-8.31,14.2S.2,94.06,8.29,96.48a6.53,6.53,0,0,0,2.27.19A14.37,14.37,0,0,1,12.15,89.16Z"/><path class="cls-7" d="M71.69,69.75C76.6,68.53,79,66.29,82.2,61.19,79,66.29,76.6,68.53,71.69,69.75Z"/><path class="cls-7" d="M83,60c1.59-2.51,2.78-4.29,3.64-5.51h0C85.76,55.67,84.57,57.45,83,60Z"/><path class="cls-7" d="M14.22,95.79c-.38.15-.76.28-1.14.4C13.46,96.07,13.84,95.94,14.22,95.79Z"/><path class="cls-7" d="M18.17,93.66c-.35.24-.7.47-1.06.69C17.47,94.13,17.82,93.9,18.17,93.66Z"/><path class="cls-7" d="M36.87,85.45c-.39,0-.79,0-1.19.06C36.08,85.5,36.48,85.48,36.87,85.45Z"/><path class="cls-7" d="M39.15,85.15l-.38.07Z"/><path class="cls-7" d="M70.41,70c-.89.18-1.85.33-2.91.47C68.56,70.37,69.52,70.22,70.41,70Z"/><path class="cls-7" d="M41.55,84.55c-.31.09-.62.19-.93.27C40.93,84.74,41.24,84.64,41.55,84.55Z"/><path class="cls-7" d="M19.47,92.67c-.38.31-.76.6-1.14.88C18.71,93.27,19.09,93,19.47,92.67Z"/><path class="cls-7" d="M20.84,91.42c-.36.37-.74.7-1.11,1C20.1,92.12,20.48,91.79,20.84,91.42Z"/><path class="cls-7" d="M90.17,21.11c-9,3.34-4.12,6.79-.44,15.42.53,1.25,1.14,2.47,1.79,3.66l.58-.39c-.06-.12-.11-.24-.16-.37a6.66,6.66,0,0,1,4-8.55l1.09,3h0l.35.94c1.56-4,2.56-7.85,2.08-10.5-.12-.64-.27-1.28-.44-1.91a3.73,3.73,0,0,1,1.59-.31,2.93,2.93,0,0,0,1.81-.44C100,19.39,96.42,18.79,90.17,21.11Z"/><path class="cls-7" d="M88.32,52.11l0,.07Z"/><path class="cls-7" d="M86.62,54.45h0c.87-1.25,1.38-1.92,1.57-2.16C88,52.53,87.49,53.2,86.62,54.45Z"/><path class="cls-7" d="M92.09,45.69c.42-.76.86-1.58,1.3-2.42h0C93,44.11,92.51,44.93,92.09,45.69Z"/><path class="cls-7" d="M88.48,51.86l-.12.19Z"/><path class="cls-7" d="M88.78,51.38l-.24.39Z"/><path class="cls-7" d="M92,45.9l-.52.93Z"/><path class="cls-7" d="M90.73,48.12l-.56,1Z"/><path class="cls-7" d="M91.31,47.09l-.51.9Z"/><path class="cls-7" d="M90.1,49.18l-.42.71Z"/><path class="cls-7" d="M89.56,50.09c-.12.2-.23.39-.34.56C89.33,50.48,89.44,50.29,89.56,50.09Z"/><path class="cls-7" d="M89.15,50.78l-.35.57Z"/><path class="cls-7" d="M93.39,43.27h0l0-.06Z"/><path class="cls-7" d="M93.57,42.93c.12-.23.24-.46.35-.69h0C93.81,42.47,93.69,42.7,93.57,42.93Z"/><path class="cls-8" d="M14.42,95.71l-.2.08Z"/><path class="cls-8" d="M19.73,92.45l-.26.22Z"/><path class="cls-8" d="M15.69,95.14l-.23.11Z"/><path class="cls-8" d="M17.11,94.35l-.25.16Z"/><path class="cls-8" d="M32.51,85.49c-4.66.27-8,2.3-11.67,5.93C24.47,87.79,27.85,85.76,32.51,85.49Z"/><path class="cls-8" d="M13.08,96.19l-.24.06Z"/><path class="cls-8" d="M11.81,96.5l-.1,0Z"/><path class="cls-8" d="M48.27,80.74a17.69,17.69,0,0,1-6.72,3.81A17.69,17.69,0,0,0,48.27,80.74Z"/><path class="cls-8" d="M18.33,93.55l-.16.11Z"/><path class="cls-8" d="M35.68,85.51l-1.09,0Z"/><path class="cls-8" d="M40.62,84.82c-.49.13-1,.24-1.47.33C39.65,85.06,40.13,85,40.62,84.82Z"/><path class="cls-8" d="M38.77,85.22a17.28,17.28,0,0,1-1.9.23A17.28,17.28,0,0,0,38.77,85.22Z"/><path class="cls-8" d="M10.56,96.68l.11,0h-.11Z"/><path class="cls-5" d="M89.68,49.89l-.12.2Z"/><path class="cls-8" d="M89.68,49.89l-.12.2Z"/><path class="cls-5" d="M90.17,49.07l-.07.11Z"/><path class="cls-8" d="M90.17,49.07l-.07.11Z"/><path class="cls-5" d="M88.8,51.35l0,0Z"/><path class="cls-8" d="M88.8,51.35l0,0Z"/><path class="cls-5" d="M92.09,45.69,92,45.9Z"/><path class="cls-8" d="M92.09,45.69,92,45.9Z"/><path class="cls-5" d="M88.36,52.05l0,.06Z"/><path class="cls-8" d="M88.36,52.05l0,.06Z"/><path class="cls-5" d="M90.8,48s0,.08-.07.13Z"/><path class="cls-8" d="M90.8,48s0,.08-.07.13Z"/><path class="cls-5" d="M89.22,50.65c0,.05,0,.09-.07.13Z"/><path class="cls-8" d="M89.22,50.65c0,.05,0,.09-.07.13Z"/><path class="cls-5" d="M91.46,46.83l-.15.26Z"/><path class="cls-8" d="M91.46,46.83l-.15.26Z"/><path class="cls-5" d="M88.54,51.77l-.06.09Z"/><path class="cls-8" d="M88.54,51.77l-.06.09Z"/><path class="cls-5" d="M93.57,42.93a2.44,2.44,0,0,0-.14.28A2.44,2.44,0,0,1,93.57,42.93Z"/><path class="cls-8" d="M93.57,42.93a2.44,2.44,0,0,0-.14.28A2.44,2.44,0,0,1,93.57,42.93Z"/><path class="cls-7" d="M84.29,44.6,92,41l-.45-.79a24.93,24.93,0,0,1-8.26,3.73c-7.7,1.72-17.59-.66-21.17,4.75s-7.1,11-11.37,12.7S39.17,62,34.35,66.74s-5.06,10.71-10.41,14-8.43,2.45-11.79,8.43a14.37,14.37,0,0,0-1.59,7.51h.11c.34,0,.68-.07,1-.13l.1,0c.33-.06.68-.15,1-.25l.24-.06c.38-.12.76-.25,1.14-.4l.2-.08c.35-.14.69-.29,1-.46l.23-.11q.58-.28,1.17-.63l.25-.16c.36-.22.71-.45,1.06-.69l.16-.11c.38-.28.76-.57,1.14-.88l.26-.22c.37-.33.75-.66,1.11-1,3.63-3.63,7-5.66,11.67-5.93a18,18,0,0,1,2.08,0l1.09,0c.4,0,.8,0,1.19-.06a17.28,17.28,0,0,0,1.9-.23l.38-.07c.5-.09,1-.2,1.47-.33.31-.08.62-.18.93-.27a17.69,17.69,0,0,0,6.72-3.81,13.24,13.24,0,0,0,1.3-1.42c3.12-4,7-7.61,16.27-8.61l1.66-.2c1.06-.14,2-.29,2.91-.47.45-.09.88-.18,1.28-.29C76.6,68.53,79,66.29,82.2,61.19L83,60c1.59-2.51,2.78-4.29,3.64-5.51C85.36,49.05,84.29,44.6,84.29,44.6Z"/><path class="cls-8" d="M84.29,44.6,92,41l-.45-.79a24.93,24.93,0,0,1-8.26,3.73c-7.7,1.72-17.59-.66-21.17,4.75s-7.1,11-11.37,12.7S39.17,62,34.35,66.74s-5.06,10.71-10.41,14-8.43,2.45-11.79,8.43a14.37,14.37,0,0,0-1.59,7.51h.11c.34,0,.68-.07,1-.13l.1,0c.33-.06.68-.15,1-.25l.24-.06c.38-.12.76-.25,1.14-.4l.2-.08c.35-.14.69-.29,1-.46l.23-.11q.58-.28,1.17-.63l.25-.16c.36-.22.71-.45,1.06-.69l.16-.11c.38-.28.76-.57,1.14-.88l.26-.22c.37-.33.75-.66,1.11-1,3.63-3.63,7-5.66,11.67-5.93a18,18,0,0,1,2.08,0l1.09,0c.4,0,.8,0,1.19-.06a17.28,17.28,0,0,0,1.9-.23l.38-.07c.5-.09,1-.2,1.47-.33.31-.08.62-.18.93-.27a17.69,17.69,0,0,0,6.72-3.81,13.24,13.24,0,0,0,1.3-1.42c3.12-4,7-7.61,16.27-8.61l1.66-.2c1.06-.14,2-.29,2.91-.47.45-.09.88-.18,1.28-.29C76.6,68.53,79,66.29,82.2,61.19L83,60c1.59-2.51,2.78-4.29,3.64-5.51C85.36,49.05,84.29,44.6,84.29,44.6Z"/><path class="cls-7" d="M92.1,39.8l-.58.39L92,41l.6-.28A6.38,6.38,0,0,1,92.1,39.8Z"/><path class="cls-8" d="M92.1,39.8l-.58.39L92,41l.6-.28A6.38,6.38,0,0,1,92.1,39.8Z"/><path class="cls-7" d="M92,41,84.29,44.6s1.07,4.45,2.33,9.85c.87-1.25,1.38-1.92,1.57-2.16l.09-.11,0-.07,0-.06.12-.19.06-.09.24-.39,0,0,.35-.57s0-.08.07-.13.22-.36.34-.56l.12-.2.42-.71.07-.11.56-1s0-.09.07-.13l.51-.9.15-.26L92,45.9l.11-.21c.42-.76.86-1.58,1.3-2.42C92.9,42.53,92.42,41.77,92,41Z"/><path class="cls-8" d="M92,41,84.29,44.6s1.07,4.45,2.33,9.85c.87-1.25,1.38-1.92,1.57-2.16l.09-.11,0-.07,0-.06.12-.19.06-.09.24-.39,0,0,.35-.57s0-.08.07-.13.22-.36.34-.56l.12-.2.42-.71.07-.11.56-1s0-.09.07-.13l.51-.9.15-.26L92,45.9l.11-.21c.42-.76.86-1.58,1.3-2.42C92.9,42.53,92.42,41.77,92,41Z"/><path class="cls-7" d="M93.43,43.21a2.44,2.44,0,0,1,.14-.28c.12-.23.24-.46.35-.69a6.45,6.45,0,0,1-1.35-1.54L92,41c.45.79.93,1.55,1.42,2.29Z"/><path class="cls-8" d="M93.43,43.21a2.44,2.44,0,0,1,.14-.28c.12-.23.24-.46.35-.69a6.45,6.45,0,0,1-1.35-1.54L92,41c.45.79.93,1.55,1.42,2.29Z"/><path class="cls-7" d="M105.55,32.11a.67.67,0,1,0-.8-.5A.67.67,0,0,0,105.55,32.11Z"/><path class="cls-2" d="M144.32,135.65c-4.33-8.3-7.7-13.73-9.39-18.15l-3.45-8.45a13.38,13.38,0,0,0,6.65-10.2,11.38,11.38,0,0,0-.5-4.73,95.5,95.5,0,0,1-15.16-2.46c.26-.25.48-.49.72-.74a25.31,25.31,0,0,0,3.14-3.8A22.12,22.12,0,0,0,128.07,84a20.62,20.62,0,0,0,1-2.65c.17-.59.32-1.16.42-1.69,0-.05,0-.09,0-.14.05-.29.1-.57.13-.83l0-.26c0-.22.05-.43.07-.63a2.64,2.64,0,0,1,0-.28c0-.18,0-.35,0-.51s0-.19,0-.28V76.3c0-.12,0-.24,0-.35s0-.28,0-.4a2.12,2.12,0,0,1,0-.24,1.36,1.36,0,0,1,0-.2s0-.1,0-.14,0-.14,0-.19,0-.16,0-.16c-7.21-5-11-3.49-16.81-3.57l-.58,0c-6,.3-22,5.79-24.11,6.5l-.22.08a39,39,0,0,0-8.62,6.78h0l0,0h0a28.65,28.65,0,0,0-5.58,8,14.59,14.59,0,0,0,.37,2.31c1.6,6.82,7.71,14.09,9.56,16.17l2.13,7,2.47,8.16c.09,1.77-.49,5.16-1.43,9.54ZM88.11,102.82c-.09-.75-.21-1.51-.36-2.27.15.76.27,1.52.36,2.27Z"/><path class="cls-5" d="M176.71,88.79a15.73,15.73,0,0,1-1.55,1.38A15.73,15.73,0,0,0,176.71,88.79Z"/><path class="cls-5" d="M175.13,90.18a14.78,14.78,0,0,1-1.77,1.19A14.78,14.78,0,0,0,175.13,90.18Z"/><path class="cls-5" d="M178.06,87.25a17.06,17.06,0,0,1-1.25,1.43A17.06,17.06,0,0,0,178.06,87.25Z"/><path class="cls-5" d="M179.23,85.53c-.31.5-.63,1-1,1.45C178.6,86.51,178.92,86,179.23,85.53Z"/><path class="cls-5" d="M128.61,86.08a30.21,30.21,0,0,1,3.11-.39,14.19,14.19,0,0,1,1.11,1h.11s-1.7-2.51-3.89-5.33a18.73,18.73,0,0,1-1,2.67C128.27,84.7,128.45,85.39,128.61,86.08Z"/><path class="cls-5" d="M126.83,86.38c.68-.13,1.26-.22,1.78-.3-.16-.69-.34-1.38-.54-2.06A21.63,21.63,0,0,1,126.83,86.38Z"/><path class="cls-5" d="M129.64,78.42c0-.22.05-.43.07-.63C129.69,78,129.67,78.2,129.64,78.42Z"/><path class="cls-5" d="M129.48,79.51c.05-.29.1-.57.13-.83C129.58,78.94,129.53,79.22,129.48,79.51Z"/><path class="cls-5" d="M129.71,75.31a1.5,1.5,0,0,1,0-.2A1.36,1.36,0,0,0,129.71,75.31Z"/><path class="cls-5" d="M129.75,76c0-.14,0-.28,0-.4C129.74,75.67,129.74,75.81,129.75,76Z"/><path class="cls-5" d="M129.64,74.78s0,.12,0,.19S129.65,74.83,129.64,74.78Z"/><path class="cls-5" d="M129.76,76.3v0Z"/><path class="cls-5" d="M129.46,79.65c-.1.53-.25,1.1-.42,1.69h0C129.22,80.75,129.36,80.18,129.46,79.65Z"/><path class="cls-5" d="M129.73,77.51c0-.18,0-.35,0-.51C129.75,77.16,129.74,77.33,129.73,77.51Z"/><path class="cls-5" d="M128.61,86.08c.07.29.13.58.19.88l4-.27a14.19,14.19,0,0,0-1.11-1A30.21,30.21,0,0,0,128.61,86.08Z"/><path class="cls-5" d="M128.07,84a18.73,18.73,0,0,0,1-2.67h0a20.62,20.62,0,0,1-1,2.65Z"/><path class="cls-5" d="M165.34,44.75c4.21-11.13,2.48-16.07,2-14.59.24-1.53-2.12-2.36-2.72-.87.39-1.58-2.39-2.16-3.06-.24.31-1.49,1.52-4.67-.05-5s-4.54,9.45-5.31,12c.34-1.17,1-3.46,1.19-4.64a1.57,1.57,0,0,0-1.17-1.66c-.52-.07-.76.49-1.49,2.41-1.4,3.69-3.6,15,8.78,45.75-6.74,1.14-20.69.22-33.89-3.14h0s0,.11,0,.19,0,.09,0,.14a1.5,1.5,0,0,0,0,.2,2.12,2.12,0,0,0,0,.24c0,.12,0,.26,0,.4s0,.23,0,.35v.42c0,.09,0,.19,0,.28s0,.33,0,.51a2.46,2.46,0,0,0,0,.28c0,.2,0,.41-.07.63l0,.26c0,.26-.08.54-.13.83,0,0,0,.09,0,.14-.1.53-.24,1.1-.41,1.7,2.19,2.82,3.89,5.33,3.89,5.33h-.11l-4,.27c-.06-.3-.12-.59-.19-.88-.52.08-1.1.17-1.78.3A21.63,21.63,0,0,0,128.07,84v0a22.12,22.12,0,0,1-1.74,3.13,25.31,25.31,0,0,1-3.14,3.8c-.24.25-.46.49-.72.74a95.5,95.5,0,0,0,15.16,2.46,141.79,141.79,0,0,0,28.63-.51,18.38,18.38,0,0,0,7.08-2.23h0a14.78,14.78,0,0,0,1.77-1.19h0a15.73,15.73,0,0,0,1.55-1.38l.1-.11a17.06,17.06,0,0,0,1.25-1.43l.19-.27c.35-.47.67-1,1-1.45l.1-.17.28-.48-.06,0C181.59,68.69,169.08,55.76,165.34,44.75Z"/><path class="cls-9" d="M99.27,40.06l.14.37a3.51,3.51,0,0,1-3.94-1.1l-.15.07c-.34.72-.68,1.42-1,2.12.35-.7.69-1.4,1-2.12l.08-.17a3.52,3.52,0,0,1-.5-.89,3,3,0,0,1-.15-.59A3.5,3.5,0,0,1,97,33.84l-1.09-3a6.66,6.66,0,0,0-4,8.55c0,.13.1.25.16.37a6.38,6.38,0,0,0,.47.9h0a6.45,6.45,0,0,0,1.35,1.54c.07-.12.13-.25.19-.37-.06.12-.12.25-.19.37a6.67,6.67,0,0,0,6.58,1.15Z"/><polygon class="cls-2" points="98.48 37.91 98.48 37.91 97.33 34.78 97.33 34.78 98.48 37.91"/><polygon class="cls-2" points="99.27 40.06 98.48 37.91 98.48 37.91 99.27 40.06"/><polygon class="cls-2" points="97.33 34.78 96.98 33.84 96.98 33.84 97.33 34.78 97.33 34.78"/><path class="cls-2" d="M97,35.67h0s0,.07,0,.11S97,35.7,97,35.67Z"/><path class="cls-2" d="M99.27,40.06l-.79-2.15-1.15-3.13L97,33.84a3.5,3.5,0,0,0-2.23,3.91,3,3,0,0,0,.15.59,3.52,3.52,0,0,0,.5.89l.2-.42h0c-.07.13-.14.27-.2.41l-.08.17h0l.15-.07a3.51,3.51,0,0,0,3.94,1.1Zm-2.34-4.28s0-.07,0-.11h0S96.94,35.74,96.93,35.78Z"/></g></g></g></svg>