<?xml version="1.0" encoding="UTF-8"?>
<svg width="229px" height="379px" viewBox="0 0 229 379" version="1.1" xmlns="http://www.w3.org/2000/svg" xmlns:xlink="http://www.w3.org/1999/xlink">
    <!-- Generator: Sketch 62 (91390) - https://sketch.com -->
    <title>Group 79</title>
    <desc>Created with Sketch.</desc>
    <defs>
        <path d="M25.3488889,0.696666667 C24.6565556,0.696666667 24.0916667,1.24 24.0916667,1.91333333 L24.0916667,1.91333333 C24.0916667,1.98666667 24.0916667,2.06333333 24.0847778,2.13666667 L24.0847778,2.13666667 C23.9676667,3.38666667 22.8792222,4.34666667 21.5772222,4.34333333 L21.5772222,4.34333333 L17.2268889,4.34333333 L17.1855556,4.34333333 C15.7457778,4.34333333 14.3714444,4.94333333 13.4207778,5.99 L13.4207778,5.99 C13.1417778,5.68 12.8248889,5.41333333 12.477,5.18666667 L12.477,5.18666667 C11.6468889,4.63333333 10.6583333,4.34 9.656,4.34333333 L9.656,4.34333333 L9.60777778,4.34333333 L5.25744444,4.34333333 C3.95888889,4.34666667 2.87388889,3.38666667 2.75333333,2.13666667 L2.75333333,2.13666667 C2.74644444,2.06333333 2.74644444,1.98666667 2.74644444,1.91333333 L2.74644444,1.91333333 C2.74644444,1.24 2.18844444,0.696666667 1.48922222,0.696666667 L1.48922222,0.696666667 C0.796888889,0.696666667 0.235444444,1.24 0.235444444,1.91333333 L0.235444444,1.91333333 C0.235444444,2.76333333 0.469666667,3.60333333 0.907111111,4.34333333 L0.907111111,4.34333333 C0.917444444,4.35333333 0.924333333,4.36666667 0.927777778,4.38 L0.927777778,4.38 C1.38244444,5.12666667 2.03344444,5.73666667 2.80844444,6.16 L2.80844444,6.16 C3.177,6.36 3.56622222,6.51 3.97266667,6.61666667 L3.97266667,6.61666667 C4.27233333,6.69 4.57888889,6.74333333 4.88544444,6.76333333 L4.88544444,6.76333333 C5.00944444,6.77333333 5.13688889,6.77666667 5.25744444,6.77666667 L5.25744444,6.77666667 L5.30222222,6.77666667 C4.87855556,7.49333333 4.64433333,8.3 4.634,9.12333333 L4.634,9.12333333 L4.634,9.20666667 C4.634,11.89 6.88322222,14.0666667 9.65944444,14.0666667 L9.65944444,14.0666667 C10.2243333,14.0666667 10.7926667,13.9733333 11.33,13.79 L11.33,13.79 C11.9121111,14.4866667 12.6216667,15.0733333 13.4207778,15.5166667 L13.4207778,15.5166667 C14.2198889,15.0733333 14.9294444,14.4866667 15.515,13.79 L15.515,13.79 C18.1293333,14.6866667 20.9985556,13.3566667 21.9251111,10.83 L21.9251111,10.83 C22.1145556,10.3066667 22.211,9.75666667 22.211,9.20666667 L22.211,9.20666667 L22.211,9.12333333 C22.1972222,8.3 21.9664444,7.49333333 21.5358889,6.77666667 L21.5358889,6.77666667 L21.5841111,6.77666667 C21.7115556,6.77666667 21.8355556,6.77333333 21.9595556,6.76333333 L21.9595556,6.76333333 C22.2661111,6.74333333 22.5726667,6.69 22.8654444,6.61666667 L22.8654444,6.61666667 C23.2718889,6.51 23.668,6.36 24.0365556,6.16 L24.0365556,6.16 C24.8115556,5.73666667 25.4591111,5.12666667 25.9103333,4.38 L25.9103333,4.38 L25.9378889,4.34666667 C26.3753333,3.60666667 26.6095556,2.76666667 26.6061486,1.91666667 L26.6061486,1.91666667 C26.6095556,1.24333333 26.0446667,0.696666667 25.3523333,0.696666667 L25.3523333,0.696666667 L25.3488889,0.696666667 Z M16.7722222,11.6 C15.4013333,11.3766667 14.4782222,10.12 14.7124444,8.79666667 L14.7124444,8.79666667 C14.8915556,7.77666667 15.7147778,6.97666667 16.7722222,6.80666667 L16.7722222,6.80666667 C18.1431111,6.58333333 19.4347778,7.47666667 19.669,8.80333333 L19.669,8.80333333 C19.6896667,8.91333333 19.7,9.03 19.7034444,9.14333333 L19.7034444,9.14333333 L19.7034444,9.20333333 C19.7034444,9.22333333 19.7,9.24333333 19.7,9.26666667 L19.7,9.26666667 C19.6655556,10.5833333 18.5495556,11.6333333 17.1855556,11.6333333 L17.1855556,11.6333333 C17.0477778,11.6333333 16.9065556,11.6233333 16.7722222,11.6 L16.7722222,11.6 Z M7.14155556,9.26666667 L7.14155556,9.20333333 L7.14155556,9.14333333 C7.17944444,7.8 8.32644444,6.74 9.72144444,6.77666667 L9.72144444,6.77666667 C11.0992222,6.81 12.198,7.92333333 12.1635556,9.26666667 L12.1635556,9.26666667 C12.1428889,9.98333333 11.8018889,10.6533333 11.2232222,11.1 L11.2232222,11.1 C10.8891111,11.3633333 10.493,11.5333333 10.0658889,11.6 L10.0658889,11.6 C9.93155556,11.6233333 9.79033333,11.6333333 9.65255556,11.6333333 L9.65255556,11.6333333 C8.28855556,11.6333333 7.176,10.5833333 7.14155556,9.26666667 L7.14155556,9.26666667 Z" id="path-1"></path>
    </defs>
    <g id="Tabs" stroke="none" stroke-width="1" fill="none" fill-rule="evenodd">
        <g id="Athenian---Overview---v1.3-Copy-3" transform="translate(-905.000000, -169.000000)">
            <g id="Group-79" transform="translate(905.000000, 169.000000)">
                <polygon id="Fill-1" fill="#F2F2F4" points="0 379 229 379 229 206 0 206"></polygon>
                <polygon id="Fill-2" fill="#E6E7EC" points="0 230 229 230 229 206 0 206"></polygon>
                <g id="Group-5" transform="translate(7.000000, 209.000000)">
                    <mask id="mask-2" fill="white">
                        <use xlink:href="#path-1"></use>
                    </mask>
                    <g id="Clip-4"></g>
                    <polygon id="Fill-3" fill="#FAFAFB" mask="url(#mask-2)" points="-4.70733333 20.3033333 31.5488889 20.3033333 31.5488889 -4.08666667 -4.70733333 -4.08666667"></polygon>
                </g>
                <polygon id="Fill-6" fill="#E6E7EC" points="132.904948 274.647003 112.474147 260.272172 70.4161311 294.205587 45.9236419 285.411174 25 303 199 303 199 253"></polygon>
                <polygon id="Fill-7" fill="#E6E7EC" points="25 328 199 328 199 322 25 322"></polygon>
                <polygon id="Fill-8" fill="#E6E7EC" points="25 339 199 339 199 333 25 333"></polygon>
                <polygon id="Fill-9" fill="#E6E7EC" points="25 349 199 349 199 343 25 343"></polygon>
                <polygon id="Fill-10" fill="#E6E7EC" points="25 360 199 360 199 354 25 354"></polygon>
                <g id="Group-78" transform="translate(52.000000, 0.000000)">
                    <path d="M75.9816226,85.2882424 C74.5552075,79.993697 75.3091698,50.4019394 75.3091698,50.4019394 L52.0891698,51.2572121 C52.0891698,51.2572121 51.8140755,80.4688485 51.2027547,85.142303 C50.5880377,89.8157576 42.6001132,91.6858182 33.2129434,96.4610909 C31.9257736,97.1127273 30.4857736,98.6264242 29.2121887,99.7226667 C30.7269057,103.12 61.9891698,114.513455 64.2136981,117.445818 C66.6589811,120.670061 89.892566,103.510303 92.5993585,96.0741818 C81.6736981,90.0804848 77.3265283,90.2569697 75.9816226,85.2882424" id="Fill-11" fill="#F5AB88"></path>
                    <path d="M74.1242264,49.8819879 L52.6736604,50.6727758 C52.6736604,50.6727758 52.5887547,57.5319273 52.4155472,65.836897 C54.0661132,69.7263515 57.3706415,75.9440485 63.1272453,75.8490182 C69.7363019,75.7438061 71.8147925,69.9910788 73.8966792,66.5801697 C73.8253585,57.8339879 74.1242264,49.8819879 74.1242264,49.8819879" id="Fill-16" fill="#EC6B3E"></path>
                    <path d="M57.9789057,50.5733333 C57.6868302,54.7275152 54.0868302,57.8567273 49.9298491,57.5648485 C45.7728679,57.2729697 42.6415472,53.672 42.9336226,49.5178182 C43.2223019,45.3670303 46.8290943,42.2344242 50.9826792,42.526303 C55.1396604,42.8181818 58.2709811,46.4191515 57.9789057,50.5733333" id="Fill-18" fill="#F5AB88"></path>
                    <path d="M54.42,50.3228606 C54.2671698,52.5119515 52.3686792,54.1614061 50.1781132,54.0086788 C47.9875472,53.8559515 46.3369811,51.9553455 46.4932075,49.7662545 C46.6460377,47.5805576 48.5479245,45.931103 50.7350943,46.0838303 C52.9256604,46.2365576 54.5762264,48.1337697 54.42,50.3228606" id="Fill-20" fill="#F18C61"></path>
                    <path d="M45.836717,48.107297 C42.3895472,45.0900848 41.5982264,34.2260848 47.9016226,29.8614788 C50.2008679,28.2697212 53.3321887,27.7300848 53.9774717,25.4391758 C55.227283,21.0236606 61.9484151,17.755297 66.9103019,20.2328727 C73.2986038,23.4231758 76.3959623,20.9659636 80.067283,17.2394182 C84.0136981,13.2345697 86.4827547,9.00232727 97.3608679,10.9063273 C108.242377,12.8103273 111.445019,11.5274182 113.489547,6.35505455 C115.530679,1.17929697 125.498604,-3.03258182 134.732943,3.40572121 C143.967283,9.84741818 146.911811,14.9009939 153.137094,12.5863273 C159.365774,10.2716606 165.66917,6.69444848 171.181245,12.4811152 C176.696717,18.2711758 172.166151,29.5356606 164.94917,29.4066909 C157.732189,29.2777212 161.342377,37.8542061 163.27483,43.0163879 C165.207283,48.1785697 159.85483,56.0355394 150.759736,52.8825697 C141.657849,49.7296 139.633698,52.3531152 136.675585,57.0842667 C133.717472,61.8154182 125.950302,61.5880242 122.180491,58.8016 C118.410679,56.0151758 113.832566,53.7921455 108.425774,57.1012364 C103.018981,60.4103273 101.232566,62.5111758 94.8850189,59.8401455 C88.5408679,57.1657212 87.2842642,58.1296 83.6842642,60.0539636 C80.0808679,61.9749333 72.8469057,59.2428121 72.8469057,59.2428121 L45.836717,48.107297 Z" id="Fill-22" fill="#EC6B3E"></path>
                    <path d="M63.9124528,51.4730667 L63.4471698,45.9171879 L84.6158491,47.2679758 C93.0996226,42.3331879 95.1101887,42.380703 101.804151,44.1217939 C108.504906,45.8628848 107.618491,37.9516121 114.655472,35.5894303 C121.695849,33.2306424 123.05434,39.5196121 129.520755,39.3295515 C135.990566,39.136097 134.081887,32.748703 142.324528,33.2476121 C150.105283,33.7193697 151.039245,39.5603394 161.941132,39.3974303 C162.382642,40.6803394 162.868302,41.9259152 163.275849,43.0153697 C165.208302,48.1775515 159.855849,56.0345212 150.757358,52.8815515 C141.658868,49.7285818 139.634717,52.352097 136.676604,57.0832485 C133.718491,61.8144 125.951321,61.5870061 122.178113,58.8005818 C118.411698,56.0141576 113.830189,53.7945212 108.423396,57.1036121 C103.02,60.412703 101.230189,62.5101576 94.8860377,59.8391273 C88.5418868,57.168097 87.5298113,57.7925818 83.9298113,59.7169455 C80.3264151,61.6413091 73.2928302,59.9341576 73.2928302,59.9341576 L63.9124528,51.4730667 Z" id="Fill-24" fill="#EC6B3E"></path>
                    <path d="M69.5009434,50.5733333 C69.7930189,54.7275152 73.3964151,57.8567273 77.5533962,57.5648485 C81.7103774,57.2729697 84.8416981,53.672 84.5496226,49.5178182 C84.2575472,45.3670303 80.6507547,42.2344242 76.500566,42.526303 C72.3435849,42.8181818 69.2088679,46.4191515 69.5009434,50.5733333" id="Fill-26" fill="#F5AB88"></path>
                    <path d="M73.0595094,50.3228606 C73.2157358,52.5119515 75.1108302,54.1614061 77.3047925,54.0086788 C79.4953585,53.8559515 81.1425283,51.9553455 80.9896981,49.7662545 C80.8368679,47.5805576 78.9349811,45.931103 76.7478113,46.0838303 C74.5572453,46.2365576 72.9066792,48.1337697 73.0595094,50.3228606" id="Fill-28" fill="#F18C61"></path>
                    <path d="M49.4947925,53.2626909 C50.238566,63.8585697 53.9200755,71.5085091 64.682717,71.3456 C71.4242264,71.2403879 77.1298868,63.8008727 77.0653585,53.1778424 C76.997434,42.0389333 74.6812075,33.1094788 62.0778113,33.0992889 C49.8615849,33.0891152 48.7510189,42.6634182 49.4947925,53.2626909" id="Fill-30" fill="#F5AB88"></path>
                    <path d="M63.4247547,53.1170909 L60.8436226,58.1774545 C60.534566,58.7747879 60.9658868,59.4875152 61.6417358,59.497697 L64.7051321,59.5350303 L63.4247547,53.1170909 Z" id="Fill-32" fill="#C47A58"></path>
                    <path d="M84.336,51.9254788 C78.2227925,54.3996606 75.2918491,52.2275394 72.456,50.5950545 C69.6167547,48.9659636 69.9801509,41.2277818 65.8095849,39.927903 C61.6322264,38.6314182 60.606566,41.9371152 56.1235472,40.7865697 C50.8933585,39.4459636 49.8471132,42.5887515 49.8471132,42.5887515 C49.8471132,42.5887515 49.6978868,38.6891152 57.4175094,35.9264485 C65.1439245,33.1671758 73.9537358,33.1264485 78.5148679,37.8983273 C80.0092075,39.4629333 79.9582642,41.835297 81.6326038,43.3557818 C85.7963774,47.1332364 84.336,51.9254788 84.336,51.9254788" id="Fill-34" fill="#EC6B3E"></path>
                    <path d="M74.3066038,49.4994909 C73.9432075,49.4451879 73.5933962,49.3569455 73.2469811,49.2890667 C72.8937736,49.2347636 72.5473585,49.1533091 72.2009434,49.1091879 C71.5081132,49.0107636 70.8220755,48.9496727 70.1360377,48.9530667 C69.4567925,48.9598545 68.7809434,49.0277333 68.1118868,49.1634909 C67.4496226,49.2992485 66.7737736,49.5130667 66.1692453,49.7913697 L66.1318868,49.8117333 C65.9926415,49.8762182 65.8228302,49.8151273 65.7583019,49.6759758 C65.7107547,49.5673697 65.7345283,49.4451879 65.8092453,49.3637333 C66.3764151,48.7596121 67.0726415,48.3896727 67.8164151,48.1249455 C68.5601887,47.8602182 69.3481132,47.7448242 70.1326415,47.7312485 C70.9137736,47.7414303 71.6881132,47.8466424 72.4284906,48.0604606 C72.8054717,48.1554909 73.155283,48.3150061 73.5118868,48.4473697 C73.8549057,48.6102788 74.1945283,48.7867636 74.5171698,48.9802182 C74.6530189,49.0616727 74.6937736,49.2347636 74.6156604,49.3671273 C74.5545283,49.4689455 74.4424528,49.5198545 74.3337736,49.5028848 L74.3066038,49.4994909 Z" id="Fill-36" fill="#EC6B3E"></path>
                    <path d="M68.2171698,53.112 C68.6790566,53.2002424 69.120566,53.2918788 69.5620755,53.3529697 C70.0001887,53.4140606 70.4383019,53.448 70.8696226,53.4412121 C71.3043396,53.4310303 71.7322642,53.3801212 72.1567925,53.2884848 C72.5745283,53.1934545 73.0092453,53.057697 73.3896226,52.8710303 L73.4133962,52.8574545 C73.5084906,52.8133333 73.620566,52.8506667 73.664717,52.942303 C73.6986792,53.0135758 73.6850943,53.0984242 73.6375472,53.1527273 C72.9243396,53.9197576 71.8850943,54.2252121 70.8866038,54.2557576 C70.3839623,54.2523636 69.884717,54.1912727 69.4126415,54.0521212 C69.1681132,53.9944242 68.9439623,53.8892121 68.7164151,53.8043636 C68.4990566,53.6923636 68.2816981,53.5837576 68.0745283,53.4581818 C67.9862264,53.4004848 67.9590566,53.2850909 68.0133962,53.1968485 C68.0541509,53.1289697 68.1356604,53.0984242 68.2103774,53.112 L68.2171698,53.112 Z" id="Fill-38" fill="#C47A58"></path>
                    <path d="M53.4483396,53.112 C53.9068302,53.2002424 54.3517358,53.2918788 54.7898491,53.3529697 C55.2279623,53.4140606 55.6660755,53.448 56.1007925,53.4412121 C56.5355094,53.4310303 56.963434,53.3801212 57.3879623,53.2884848 C57.8023019,53.1934545 58.2370189,53.057697 58.6173962,52.8710303 L58.644566,52.8574545 C58.7396604,52.8133333 58.8517358,52.8506667 58.8958868,52.942303 C58.9298491,53.0135758 58.9128679,53.0984242 58.8653208,53.1527273 C58.1521132,53.9197576 57.1162642,54.2252121 56.1143774,54.2557576 C55.6151321,54.2523636 55.1124906,54.1912727 54.6404151,54.0521212 C54.399283,53.9944242 54.1751321,53.8892121 53.9441887,53.8043636 C53.7268302,53.6923636 53.5128679,53.5837576 53.3056981,53.4581818 C53.2173962,53.4004848 53.1902264,53.2850909 53.2411698,53.1968485 C53.2853208,53.1289697 53.3668302,53.0984242 53.4381509,53.112 L53.4483396,53.112 Z" id="Fill-40" fill="#C47A58"></path>
                    <path d="M60.0883019,49.2921212 C59.7656604,49.2547879 59.4566038,49.1869091 59.1543396,49.1292121 C58.8418868,49.0850909 58.5396226,49.0206061 58.2339623,48.9832727 C57.6260377,48.9018182 57.0316981,48.8373333 56.4339623,48.8339394 C55.8362264,48.8271515 55.245283,48.8678788 54.6577358,48.9595152 C54.0803774,49.0545455 53.4826415,49.2106667 52.9426415,49.4210909 L52.8984906,49.4380606 C52.7558491,49.4957576 52.5928302,49.4210909 52.5350943,49.2785455 C52.4943396,49.1733333 52.5181132,49.0579394 52.5962264,48.9832727 C53.1090566,48.4436364 53.7339623,48.1347879 54.3962264,47.9141818 C55.0618868,47.6935758 55.7615094,47.6121212 56.4509434,47.6121212 C57.1403774,47.6290909 57.8196226,47.737697 58.4683019,47.9345455 C58.7977358,48.0261818 59.1067925,48.1653333 59.4192453,48.2875152 C59.7215094,48.4402424 60.0169811,48.5963636 60.2988679,48.7728485 C60.4313208,48.857697 60.4686792,49.0307879 60.3871698,49.1631515 C60.3260377,49.2615758 60.2173585,49.305697 60.1154717,49.2955152 L60.0883019,49.2921212 Z" id="Fill-42" fill="#EC6B3E"></path>
                    <path d="M59.8295094,62.563103 C59.8125283,63.0654061 61.5683774,63.5269818 63.677434,63.4862545 C65.7830943,63.4455273 67.4370566,63.0314667 67.4642264,62.4205576 C67.4947925,61.6874667 65.7491321,62.5427394 63.6434717,62.5800727 C61.5344151,62.6208 59.853283,61.8028606 59.8295094,62.563103" id="Fill-44" fill="#EC6B3E"></path>
                    <path d="M48.6260377,64.2468364 C48.4188679,64.2468364 48.2524528,64.0805333 48.2524528,63.873503 L48.2524528,55.8604121 C48.2524528,55.6533818 48.4188679,55.4870788 48.6260377,55.4870788 C48.8332075,55.4870788 48.9996226,55.6533818 48.9996226,55.8604121 L48.9996226,63.873503 C48.9996226,64.0805333 48.8332075,64.2468364 48.6260377,64.2468364" id="Fill-46" fill="#C47A58"></path>
                    <path d="M77.9813208,64.5865697 C77.7775472,64.5865697 77.6111321,64.4202667 77.6111321,64.2132364 L77.6111321,56.2001455 C77.6111321,55.9931152 77.7775472,55.8268121 77.9813208,55.8268121 C78.1884906,55.8268121 78.3549057,55.9931152 78.3549057,56.2001455 L78.3549057,64.2132364 C78.3549057,64.4202667 78.1884906,64.5865697 77.9813208,64.5865697" id="Fill-48" fill="#C47A58"></path>
                    <path d="M84.4589434,47.3083636 C78.3457358,49.7825455 75.948,50.4986667 73.1121509,48.8661818 C70.2763019,47.2370909 70.6396981,39.4989091 66.4657358,38.1990303 C62.2951698,36.9025455 61.337434,40.68 56.7457358,40.1437576 C51.8313962,39.5667879 49.6136604,41.7253333 49.6136604,41.7253333 C49.6136604,41.7253333 47.9970566,34.4283636 55.7166792,31.665697 C63.4430943,28.9030303 74.6166792,31.3975758 79.1710189,36.1694545 C83.7287547,40.9379394 84.4589434,47.3083636 84.4589434,47.3083636" id="Fill-50" fill="#EC6B3E"></path>
                    <path d="M37.9299623,213.53537 C23.8152453,213.53537 20.1676981,198.63937 23.210717,183.325915 C26.7801509,165.368582 44.705434,156.802279 61.3843019,156.802279 C78.0631698,156.802279 95.4620377,167.079127 100.192981,184.707248 C103.867698,198.408582 98.9567547,213.53537 84.8420377,213.53537 L37.9299623,213.53537 Z" id="Fill-52" fill="#EC6B3E"></path>
                    <path d="M75.3944151,212.610521 L43.982717,212.610521 C37.0000755,212.610521 31.2910189,206.901915 31.2910189,199.930764 C31.2910189,192.952824 37.0000755,187.244218 43.982717,187.244218 L75.3944151,187.244218 C82.3770566,187.244218 88.0861132,192.952824 88.0861132,199.930764 C88.0861132,206.901915 82.3770566,212.610521 75.3944151,212.610521" id="Fill-54" fill="#C47A58"></path>
                    <path d="M46.3672075,89.9250424 C46.3672075,89.9250424 32.2117358,95.0770424 27.2124906,100.303709 C22.9909811,104.71583 21.2894717,107.529406 21.2894717,107.529406 L35.7506038,154.494739 L87.1355094,154.494739 L105.135509,107.454739 C105.135509,107.454739 101.212868,100.303709 92.4438113,95.5386182 C83.6781509,90.7735273 81.2124906,90.3085576 80.214,89.6942545 C80.214,89.6942545 67.6717358,104.990739 64.4419245,105.146861 C61.2121132,105.299588 46.3672075,89.9250424 46.3672075,89.9250424" id="Fill-56" fill="#EC6B3E"></path>
                    <path d="M64.4429434,106.53023 C68.3384151,106.601503 79.4780377,92.3944727 81.2101132,90.1544727 C80.7584151,89.9745939 80.4459623,89.8388364 80.2150189,89.6962909 C80.2150189,89.6962909 67.6727547,104.992776 64.4429434,105.145503 C61.2131321,105.301624 46.3682264,89.9236848 46.3682264,89.9236848 C46.3682264,89.9236848 45.9708679,90.0696242 45.2984151,90.3309576 C46.9218113,92.0720485 60.4693585,106.458958 64.4429434,106.53023" id="Fill-58" fill="#F2F2F4"></path>
                    <path d="M21.5988679,107.60577 C23.7554717,115.907345 31.9064151,116.830497 33.2886792,127.592679 C26.2109434,140.662739 18.9803774,160.188073 18.9803774,160.188073 C18.9803774,160.188073 46.5203774,161.569406 57.5988679,164.953164 L57.2898113,178.023224 L12.3645283,178.023224 C2.52226415,178.023224 -2.19169811,171.320194 0.983773585,156.190012 C4.98113208,137.126255 15.750566,115.754618 21.5988679,107.60577" id="Fill-60" fill="#F5AB88"></path>
                    <path d="M104.613849,107.60577 C103.907434,116.063467 90.6349811,121.94177 92.9240377,127.592679 C98.1542264,140.506618 106.369698,160.493527 106.369698,160.493527 C106.369698,160.493527 79.1047925,159.726497 68.9534717,162.954133 L68.9534717,178.023224 L113.844792,178.023224 C123.690453,178.023224 128.530075,170.624436 124.981019,155.572315 C121.503283,140.815467 114.520642,121.442861 104.613849,107.60577" id="Fill-62" fill="#F5AB88"></path>
                    <path d="M33.2832453,189.419733 C44.3277736,187.763491 48.7123019,198.410279 52.7707925,215.179733 C56.8326792,231.949188 67.3847547,276.847612 72.6658868,292.266279 C77.5224906,306.456339 71.8507925,302.000097 69.4156981,309.707733 C67.1572075,316.862158 63.4824906,322.204218 58.0485283,322.489309 C54.1904151,322.692945 57.9806038,310.926158 62.3107925,302.000097 C61.7028679,293.684945 52.974566,277.455127 39.3726792,248.039855 C25.9881509,219.089552 25.7062642,214.504339 24.8911698,204.767127 C24.0828679,195.029915 29.2247547,190.027248 33.2832453,189.419733" id="Fill-64" fill="#F18C61"></path>
                    <path d="M72.054566,189.012121 C82.4062642,189.012121 82.2024906,209.501333 81.5979623,220.45697 C80.9866415,231.409212 74.4896604,265.891636 66.369283,289.221576 C58.2523019,312.548121 57.0330566,316.403636 56.8326792,323.099879 C56.6255094,329.789333 49.1164528,331.011152 44.0424906,330.804121 C38.9685283,330.603879 38.9685283,329.385455 44.2462642,314.981576 C49.5206038,300.581091 56.2213585,260.009939 57.4372075,236.072485 C58.6598491,212.13503 53.378717,189.012121 72.054566,189.012121" id="Fill-66" fill="#F5AB88"></path>
                    <path d="M22.9818113,197.390739 C27.2916226,190.165042 75.521434,190.012315 90.057283,196.470982 L89.1369057,175.944436 L27.2916226,177.098376 L22.9818113,197.390739 Z" id="Fill-68" fill="#EC6B3E"></path>
                    <path d="M74.9600377,177.557576 L44.2343774,177.557576 C31.9026792,177.557576 21.9041887,167.569212 21.9041887,155.245818 L21.9041887,149.445576 C21.9041887,137.122182 31.9026792,127.133818 44.2343774,127.133818 L74.9600377,127.133818 C87.2917358,127.133818 97.2902264,137.122182 97.2902264,149.445576 L97.2902264,155.245818 C97.2902264,167.569212 87.2917358,177.557576 74.9600377,177.557576" id="Fill-70" fill="#E6E7EC"></path>
                    <path d="M97.2909057,178.482424 L21.9048679,178.482424 L21.9048679,150.370424 C21.9048679,138.043636 31.9033585,128.055273 44.2350566,128.055273 L74.960717,128.055273 C87.2924151,128.055273 97.2909057,138.043636 97.2909057,150.370424 L97.2909057,178.482424 Z" id="Fill-72" fill="#E6E7EC"></path>
                    <path d="M97.2909057,178.482424 L21.9048679,178.482424 C21.9048679,179.799273 22.971283,180.861576 24.2890189,180.861576 L94.9067547,180.861576 C96.2244906,180.861576 97.2909057,179.799273 97.2909057,178.482424" id="Fill-74" fill="#EC6B3E"></path>
                    <path d="M65.9056981,153.113745 C65.9056981,156.765624 62.9441887,159.725139 59.2898491,159.725139 C55.6389057,159.725139 52.674,156.765624 52.674,153.113745 C52.674,149.461867 55.6389057,146.502352 59.2898491,146.502352 C62.9441887,146.502352 65.9056981,149.461867 65.9056981,153.113745" id="Fill-76" fill="#F2F2F4"></path>
                </g>
            </g>
        </g>
    </g>
</svg>