<svg xmlns="http://www.w3.org/2000/svg" xmlns:xlink="http://www.w3.org/1999/xlink" viewBox="0 0 450 395.57"><defs><style>.cls-1{isolation:isolate;}.cls-2{fill:#f3f3f5;}.cls-3{fill:#f6ac88;}.cls-10,.cls-11,.cls-4,.cls-7,.cls-8,.cls-9{mix-blend-mode:multiply;}.cls-4{fill:url(#New_Gradient_Swatch_2);}.cls-10,.cls-5,.cls-7,.cls-9{fill:#ed6b3e;}.cls-6{fill:#f28c62;}.cls-7{opacity:0.71;}.cls-11,.cls-12,.cls-8{fill:#c47a58;}.cls-8{opacity:0.61;}.cls-9{opacity:0.58;}.cls-13{fill:#e7e8ed;}</style><linearGradient id="New_Gradient_Swatch_2" x1="217.12" y1="209.49" x2="213.74" y2="247.6" gradientTransform="matrix(1, -0.03, 0.03, 1, 17.04, -146.56)" gradientUnits="userSpaceOnUse"><stop offset="0" stop-color="#efc2a8"/><stop offset="1" stop-color="#fff"/></linearGradient></defs><g class="cls-1"><g id="Capa_2" data-name="Capa 2"><g id="Capa_1-2" data-name="Capa 1"><path class="cls-2" d="M427.05,127.88A170.32,170.32,0,0,0,273,225.61a174.74,174.74,0,0,0-166.43,48,85.4,85.4,0,0,0-97,122H450V129.47A170.32,170.32,0,0,0,427.05,127.88Z"/><path class="cls-3" d="M251.24,92.55c-1.55-5.75-.73-37.92-.73-37.92l-25.22.93s-.3,31.75-1,36.83-9.35,7.11-19.54,12.3a27.36,27.36,0,0,0-4.35,3.55c1.64,3.69,35.6,16.08,38,19.26,2.65,3.51,27.89-15.14,30.83-23.22C257.43,97.76,252.7,98,251.24,92.55Z"/><path class="cls-4" d="M251.73,93.94a9.24,9.24,0,0,1-.49-1.39c-1.55-5.75-.73-37.92-.73-37.92l-25.22.93s-.3,31.75-1,36.83a5,5,0,0,1-.94,2.29Z"/><path class="cls-5" d="M249.23,54.07l-23.31.86s-.09,7.45-.27,16.48c1.79,4.22,5.38,11,11.63,10.88,7.18-.11,9.44-6.37,11.69-10.07C248.9,62.71,249.23,54.07,249.23,54.07Z"/><circle class="cls-3" cx="223.52" cy="54.24" r="8.19" transform="translate(-2.96 94.35) rotate(-23.68)"/><path class="cls-6" d="M227.82,54.55a4.32,4.32,0,1,1-4-4.61A4.31,4.31,0,0,1,227.82,54.55Z"/><path class="cls-5" d="M218.5,52.14c-3.74-3.28-4.61-15.09,2.24-19.84,2.5-1.73,5.9-2.31,6.6-4.8,1.36-4.8,8.66-8.35,14-5.66,6.94,3.47,10.3.8,14.29-3.25,4.29-4.36,7-9,18.78-6.89s15.3.68,17.52-4.95,13-10.2,23.08-3.2,13.23,12.49,20,10,13.61-6.41,19.6-.11,1.07,18.53-6.77,18.39S344,41,346.06,46.6s-3.71,14.16-13.6,10.73-12.08-.58-15.29,4.56-11.65,4.9-15.75,1.87-9.07-5.44-14.94-1.85-7.81,5.88-14.7,3-8.26-1.86-12.17.23-11.77-.88-11.77-.88Z"/><path class="cls-7" d="M238.13,55.8l-.5-6,23,1.47c9.21-5.37,11.4-5.32,18.67-3.42s6.32-6.71,14-9.28,9.12,4.27,16.15,4.07,5-7.15,13.9-6.61c8.45.51,9.47,6.86,21.31,6.68.48,1.39,1,2.75,1.45,3.93,2.1,5.61-3.71,14.16-13.6,10.73s-12.08-.58-15.29,4.56-11.65,4.9-15.75,1.87-9.07-5.44-14.94-1.85-7.81,5.88-14.7,3-8-2.22-11.91-.13-11.55.23-11.55.23Z"/><circle class="cls-3" cx="252.38" cy="54.24" r="8.19" transform="translate(101.32 263.57) rotate(-66.32)"/><path class="cls-6" d="M248.07,54.55a4.32,4.32,0,1,0,4-4.61A4.32,4.32,0,0,0,248.07,54.55Z"/><path class="cls-3" d="M222.47,57.74c.81,11.52,4.81,19.84,16.5,19.66,7.32-.12,13.52-8.21,13.45-19.75-.07-12.11-2.59-21.82-16.28-21.83C222.87,35.81,221.66,46.22,222.47,57.74Z"/><path class="cls-8" d="M237.6,57.58l-2.8,5.5a1,1,0,0,0,.86,1.44l3.33,0Z"/><path class="cls-9" d="M260.32,56.29c-6.64,2.69-9.83.33-12.91-1.45s-2.69-10.18-7.22-11.59-5.65,2.18-10.52.93c-5.68-1.46-6.82,2-6.82,2s-.16-4.24,8.23-7.24,18-3,22.91,2.14c1.63,1.7,1.57,4.28,3.39,5.93A9.44,9.44,0,0,1,260.32,56.29Z"/><path class="cls-10" d="M249.42,53.65c-.39-.06-.77-.15-1.15-.23s-.76-.15-1.13-.19a14.26,14.26,0,0,0-2.24-.17,11.66,11.66,0,0,0-2.21.22,9.83,9.83,0,0,0-2.11.69l0,0a.31.31,0,0,1-.35-.49,5.45,5.45,0,0,1,2.18-1.34,8,8,0,0,1,2.52-.43,9,9,0,0,1,2.49.36,9.73,9.73,0,0,1,1.18.42,11.37,11.37,0,0,1,1.09.58.3.3,0,0,1,.11.42.3.3,0,0,1-.31.14Z"/><path class="cls-11" d="M242.81,57.58c.5.09,1,.19,1.46.26a8.53,8.53,0,0,0,1.42.09,7.33,7.33,0,0,0,1.4-.16,6.43,6.43,0,0,0,1.34-.46h0a.21.21,0,0,1,.28.09.21.21,0,0,1,0,.23,4.17,4.17,0,0,1-3,1.2,5.79,5.79,0,0,1-1.61-.22,6.71,6.71,0,0,1-.75-.27c-.24-.12-.47-.24-.7-.38a.21.21,0,0,1-.06-.28.2.2,0,0,1,.21-.09Z"/><path class="cls-11" d="M226.76,57.58c.5.09,1,.19,1.46.26a8.65,8.65,0,0,0,1.43.09,7.22,7.22,0,0,0,1.39-.16,6.06,6.06,0,0,0,1.34-.46h0a.2.2,0,0,1,.27.09.21.21,0,0,1,0,.23,4.18,4.18,0,0,1-3,1.2,5.72,5.72,0,0,1-1.6-.22,6.06,6.06,0,0,1-.75-.27,7.8,7.8,0,0,1-.7-.38.2.2,0,0,1-.07-.28.21.21,0,0,1,.22-.09Z"/><path class="cls-10" d="M234,53.43c-.35,0-.68-.12-1-.18s-.66-.12-1-.16a14.52,14.52,0,0,0-2-.16,11.32,11.32,0,0,0-1.93.13,10.39,10.39,0,0,0-1.86.5l-.05,0a.3.3,0,0,1-.33-.49,4.63,4.63,0,0,1,2-1.16A7.05,7.05,0,0,1,230,51.6a8.42,8.42,0,0,1,2.19.35c.36.1.69.25,1,.38s.65.34,1,.53a.32.32,0,0,1,.09.43.31.31,0,0,1-.29.14Z"/><path class="cls-5" d="M233.7,67.85c0,.55,1.88,1.05,4.17,1s4.09-.49,4.12-1.16-1.86.14-4.15.18S233.72,67,233.7,67.85Z"/><path class="cls-12" d="M221.53,69.68a.41.41,0,0,1-.41-.41V60.56a.41.41,0,0,1,.81,0v8.71A.4.4,0,0,1,221.53,69.68Z"/><path class="cls-12" d="M253.42,70.05a.41.41,0,0,1-.41-.41V60.93a.41.41,0,0,1,.81,0v8.71A.4.4,0,0,1,253.42,70.05Z"/><path class="cls-5" d="M260.45,51.27c-6.64,2.69-9.24,3.47-12.32,1.69s-2.69-10.18-7.22-11.59-5.57,2.7-10.56,2.11c-5.34-.63-7.75,1.72-7.75,1.72a9.51,9.51,0,0,1,6.63-10.93c8.39-3,20.53-.29,25.48,4.89A23.3,23.3,0,0,1,260.45,51.27Z"/><path class="cls-5" d="M209.91,232c-15.33,0-19.29-16.19-16-32.84,3.88-19.52,23.35-28.83,41.47-28.83s37,11.17,42.15,30.33c4,14.9-1.34,31.34-16.68,31.34Z"/><rect class="cls-11" x="202.7" y="203.37" width="61.69" height="27.57" rx="3.74"/><path class="cls-5" d="M219.07,97.59s-15.37,5.6-20.8,11.28a51.1,51.1,0,0,0-6.43,7.86l15.7,51.05h55.82l19.55-51.14a36.63,36.63,0,0,0-13.79-13c-9.52-5.18-12.2-5.68-13.28-6.35,0,0-13.62,16.63-17.13,16.8S219.07,97.59,219.07,97.59Z"/><path class="cls-2" d="M238.71,115.64c4.23.08,16.33-15.36,18.21-17.8a7.17,7.17,0,0,1-1.08-.5s-13.62,16.63-17.13,16.8-19.64-16.55-19.64-16.55l-1.16.44C219.68,99.92,234.39,115.56,238.71,115.64Z"/><path class="cls-3" d="M192.17,116.81c2.34,9,11.2,10,12.7,21.72C197.18,152.74,189.33,174,189.33,174s29.91,1.5,41.94,5.18l-.33,14.2h-48.8c-10.69,0-15.81-7.28-12.36-23.72C174.12,148.89,185.82,125.67,192.17,116.81Z"/><path class="cls-3" d="M282.34,116.81c-.76,9.19-15.18,15.58-12.7,21.72,5.68,14,14.61,35.76,14.61,35.76s-29.61-.83-40.64,2.68v16.37h48.76c10.69,0,15.95-8,12.1-24.39C300.69,152.9,293.1,131.85,282.34,116.81Z"/><path class="cls-6" d="M204.86,205.73c12-1.8,16.76,9.78,21.17,28s15.87,67,21.61,83.78c5.28,15.43-.88,10.58-3.53,19-2.46,7.78-6.45,13.58-12.35,13.89-4.19.22-.07-12.56,4.63-22.27-.66-9-10.14-26.67-24.91-58.65-14.54-31.47-14.85-36.45-15.73-47S200.45,206.4,204.86,205.73Z"/><path class="cls-3" d="M247,205.29c11.24,0,11,22.27,10.36,34.18s-7.72,49.39-16.54,74.74S230.66,343.76,230.44,351s-8.38,8.59-13.89,8.37-5.51-1.54.22-17.19,13-59.76,14.33-85.77S226.69,205.29,247,205.29Z"/><path class="cls-5" d="M193.67,214.4c4.68-7.85,57.07-8,72.86-1l-1-22.31-67.18,1.25Z"/><rect class="cls-13" x="192.5" y="138.03" width="81.88" height="54.81" rx="6.57"/><path class="cls-13" d="M199.08,139h68.73a6.57,6.57,0,0,1,6.57,6.57v48.24a0,0,0,0,1,0,0H192.5a0,0,0,0,1,0,0V145.61A6.57,6.57,0,0,1,199.08,139Z"/><path class="cls-5" d="M192.5,193.85h81.88a0,0,0,0,1,0,0v1.89a.7.7,0,0,1-.7.7H193.2a.7.7,0,0,1-.7-.7v-1.89A0,0,0,0,1,192.5,193.85Z"/><circle class="cls-2" cx="233.11" cy="166.27" r="7.19"/></g></g></g></svg>