<svg xmlns="http://www.w3.org/2000/svg" viewBox="0 0 157.62 138.37"><defs><style>.cls-1{isolation:isolate;}.cls-2{fill:#f3f3f5;}.cls-3{fill:#e7e8ed;}.cls-4{fill:#fff;}.cls-19,.cls-5{fill:none;stroke-miterlimit:10;}.cls-5{stroke:#e7e8ed;}.cls-11,.cls-16,.cls-17,.cls-20,.cls-21,.cls-23,.cls-26,.cls-27,.cls-5{mix-blend-mode:multiply;}.cls-6{fill:#625750;}.cls-7{fill:#977461;}.cls-8{fill:#ed6b3e;}.cls-9{fill:#f28c62;}.cls-10,.cls-16{fill:#f6ac88;}.cls-11{fill:#4367af;}.cls-11,.cls-16,.cls-17,.cls-20,.cls-23,.cls-27{opacity:0.3;}.cls-12{fill:#010101;}.cls-13{fill:#f39d9d;}.cls-14{fill:#c47a58;}.cls-15,.cls-17{fill:#fac9b0;}.cls-18,.cls-20,.cls-26{fill:#fde5d8;}.cls-19{stroke:#625750;stroke-width:0.25px;}.cls-21{fill:#c3b9dc;}.cls-22,.cls-23{fill:#fac9af;}.cls-24{fill:#ed6c3d;}.cls-25{fill:#c57b57;}.cls-27{fill:#504f9d;}.cls-28{fill:#f5d0c0;}.cls-29{fill:#f28d61;}</style></defs><g class="cls-1"><g id="Capa_2" data-name="Capa 2"><g id="Capa_1-2" data-name="Capa 1"><rect class="cls-2" x="51.91" y="56.68" width="105.71" height="79.73"/><rect class="cls-3" x="51.91" y="56.68" width="105.71" height="11.04"/><path class="cls-4" d="M66.5,58.45a.57.57,0,0,0-.57.57h0v.1a1.15,1.15,0,0,1-1.14,1h-2a2.24,2.24,0,0,0-1.71.78,2.55,2.55,0,0,0-.43-.38,2.29,2.29,0,0,0-1.29-.4h-2a1.15,1.15,0,0,1-1.14-1V59a.58.58,0,0,0-1.15,0,2.3,2.3,0,0,0,.31,1.14v0a2.31,2.31,0,0,0,.86.84,2.25,2.25,0,0,0,.53.21,1.85,1.85,0,0,0,.41.07h.19a2.21,2.21,0,0,0-.3,1.1v0a2.29,2.29,0,0,0,2.28,2.29,2.43,2.43,0,0,0,.76-.14,3.43,3.43,0,0,0,1,.82,3.54,3.54,0,0,0,1-.82,2.27,2.27,0,0,0,2.91-1.39,2.18,2.18,0,0,0,.14-.76v0a2.33,2.33,0,0,0-.31-1.1H65a1.85,1.85,0,0,0,.41-.07A2.25,2.25,0,0,0,65.9,61a2.31,2.31,0,0,0,.86-.84v0A2.27,2.27,0,0,0,67.08,59a.58.58,0,0,0-.57-.57Zm-6.42,4.89a1.34,1.34,0,0,1-.53.24h-.19a1.13,1.13,0,0,1-1.14-1.11v-.06a1.14,1.14,0,1,1,1.85.92Zm3.85-.86a1.13,1.13,0,0,1-1.14,1.11H62.6a1.15,1.15,0,1,1,1.32-1.32.86.86,0,0,1,0,.16v.06Z"/><rect class="cls-3" x="63.36" y="115.02" width="80.25" height="2.93"/><rect class="cls-3" x="63.36" y="120.02" width="80.25" height="2.93"/><rect class="cls-3" x="63.36" y="125.02" width="80.25" height="2.93"/><rect class="cls-3" x="64.93" y="80.15" width="81.94" height="24.81" transform="translate(8.42 -8.83) rotate(4.97)"/><polyline class="cls-5" points="67.92 91.25 71.6 88.3 75.98 97.16 87.53 84.16 90.21 90.66 96.71 88.3 100.84 87.56 103.48 92.56 110.89 99.08"/><path class="cls-6" d="M82.87,30.79a4.9,4.9,0,0,0-1.15,1.46,17.72,17.72,0,0,0,1.15,2c.09,0,1-1.12,1.48-1.74Z"/><path class="cls-7" d="M81.19,31.1c1,.56,2.11,1.31,2.08,2.17A9.48,9.48,0,0,1,83,35L79.86,32.9Z"/><path class="cls-8" d="M76.82,10.24c.31-.24.92,0,.92,0l-.82.48Z"/><path class="cls-9" d="M74.34,55.69s-.31.9-.16,1.15.47.19,2.36.19,4,.21,4.06-.13-.52-.43-1.45-.71a2.41,2.41,0,0,1-1.24-.71Z"/><path class="cls-8" d="M80.52,56.66c-.36.24-2.26.06-4,.06s-2.2.06-2.36-.19v0a.55.55,0,0,0,0,.33c.16.25.47.19,2.36.19s4,.21,4.06-.13A.21.21,0,0,0,80.52,56.66Z"/><path class="cls-10" d="M60.25,54.93s-.48.79-.36,1.06.48,0,2.26.69c1.46.54,4,.49,4.18.21.33-.52-.58-.31-1.46-.72a1.82,1.82,0,0,1-1.06-1Z"/><path class="cls-8" d="M66.34,56.6a8.28,8.28,0,0,1-4.13-.26c-1.78-.65-2.14-.43-2.26-.69a.17.17,0,0,1,0-.07.63.63,0,0,0,0,.41c.12.26.48,0,2.26.69,1.46.54,4,.49,4.18.21S66.41,56.66,66.34,56.6Z"/><path class="cls-10" d="M74.31,26.85a81.17,81.17,0,0,1,3.47,16.69,60.06,60.06,0,0,1,.47,12.14A14.22,14.22,0,0,1,74,55.8s-.59-7.86-1.27-12.39-4.84-16.06-4.84-16.06Z"/><path class="cls-9" d="M65.19,21.85c-2.73,4.63-2.54,8.13-2.48,17.53A46.15,46.15,0,0,1,60.12,55c.9.43,3.28,1.21,4.49.93,0,0,3.74-8.1,4.12-16.17s.18-11.9.18-11.9L74,27.29Z"/><path class="cls-8" d="M71.77,12.2c-3,2.74-5.23,7-6.58,9.65a13.44,13.44,0,0,0,5.58,4.42c3.54,1.39,3.68,1,3.68,1s4.32-6.88,6.7-9.07a7.3,7.3,0,0,0-4.47-3.81A21.07,21.07,0,0,1,71.77,12.2Z"/><path class="cls-11" d="M70.59,14.4c-.89,2.7-.75,11.4-.75,11.4A24.1,24.1,0,0,0,74,27.29l2.75-3.49A45.44,45.44,0,0,1,74.31,17C73.66,14.13,70.59,14.4,70.59,14.4Z"/><path class="cls-8" d="M76,10.82c-4.74.33-5.64,2.32-5.78,5.49a19.17,19.17,0,0,0,3.35,11.54,15,15,0,0,0,6.47,5.44L81.61,31a19.49,19.49,0,0,1-4.84-4.65C74.08,22.59,74.31,17,74.31,17l6.08.93A9.85,9.85,0,0,1,84,23.44c.93,3.72-1.36,7.2-1.36,7.2L84.22,33s2.26-1.24,2.79-6.18A16,16,0,0,0,82.56,14.2C80.26,12.09,76,10.82,76,10.82Z"/><path class="cls-7" d="M79.6,13.36a1,1,0,0,1,.16-.76A31.13,31.13,0,0,1,82.7,9.45l-2.21-2S78,10,77.49,10.37a6.9,6.9,0,0,1-1.51.48C75.81,11.73,77.62,13.8,79.6,13.36Z"/><path class="cls-11" d="M80.11,11.6a1.94,1.94,0,0,0,.29.21C81.22,10.89,82,10,82,10L80.39,8.66C79.58,9.73,79.35,10.94,80.11,11.6Z"/><path class="cls-7" d="M80.68,6.08c-.76,1.18-1.66,3.42-.44,4.6,2,2,3.46-.54,4.49-2.15Z"/><path class="cls-8" d="M80.68,6.08a9.27,9.27,0,0,0,5.1,3c2,.37,2.47-2.85.42-3.37a3.26,3.26,0,0,0-2-1.72C81.91,3.38,80.68,6.08,80.68,6.08Z"/><path class="cls-8" d="M79.89,7.51l.74-.1.78-1-.22-1.16a13.08,13.08,0,0,0-.8,1.18A8.09,8.09,0,0,0,79.89,7.51Z"/><polygon class="cls-8" points="81.68 6.93 81.32 7.41 81.59 7.54 82.05 7.13 81.68 6.93"/><path class="cls-12" d="M82.67,8.26a.13.13,0,0,1-.22-.14.13.13,0,0,1,.18,0A.14.14,0,0,1,82.67,8.26Z"/><path class="cls-13" d="M82,8.68a.4.4,0,1,1-.68-.43.4.4,0,0,1,.68.43Z"/><path class="cls-13" d="M83.5,8.8v.93a.15.15,0,0,1-.21.14l-.45-.23Z"/><path class="cls-14" d="M80.87,8.08a.92.92,0,0,1-.22-1.28.91.91,0,0,1,1.27-.22Z"/><path class="cls-7" d="M81.12,7.73a.49.49,0,1,1,.56-.8Z"/><path class="cls-9" d="M76,10.85l.84-.61a6.45,6.45,0,0,0,1,1.89c.58.62,1.37,1.32,1.37,1.32a4.29,4.29,0,0,1-2.37-.81A2.18,2.18,0,0,1,76,10.85Z"/><path class="cls-9" d="M79.17,13.46,80,12.23l.29.44s-.32.57-.72.7S79.17,13.46,79.17,13.46Z"/><path class="cls-15" d="M133.07,40c-.76,5.1-1,14.66-1,14.66l2.71.3s1.52-11,2.21-14.62Z"/><path class="cls-15" d="M146.83,39.91C147.66,45,148,54.56,148,54.56l-2.7.34s-1.68-11-2.41-14.59Z"/><path class="cls-8" d="M133.6,23.38c-.87,5.52-1.43,17.12-1.43,17.12a5.84,5.84,0,0,0,3.1.74,7,7,0,0,0,2.79-.25l1.7-14a.1.1,0,0,1,.19,0l1.52,13.68s.75.44,3.16.31,2.8-1.05,2.8-1.05-.19-11.29-2.11-15.88Z"/><path class="cls-10" d="M134.14,13.38A78.33,78.33,0,0,0,133,23.32s3.76,3.32,7.25,3a6.88,6.88,0,0,0,5.09-2.79L144,12.22Z"/><path class="cls-16" d="M135.37,13.8a66.94,66.94,0,0,0,1.28,7.86c.4,1.07,2.74,6.14,2.74,6.14s-4.14-5.16-4.53-6.91S135.37,13.8,135.37,13.8Z"/><path class="cls-16" d="M143.18,13.31s2.14,3.56,2,5.4a28.15,28.15,0,0,1-1.37,6.65,13.41,13.41,0,0,1-2.23,3.16,58.78,58.78,0,0,0,1.72-7.7A30.68,30.68,0,0,0,143.18,13.31Z"/><path class="cls-15" d="M131.81,17.57c.36,5.13,4.35,10.78,7.51,12.59s1.61-1.16,1-1.46-2.34-2.48-3.83-5.64a13,13,0,0,1-1.39-5.54Z"/><path class="cls-15" d="M144.56,17.85c0,2.83-.89,8.93-3.35,11.11s.84,1.91,2.18.56,4-5.3,4.14-11.72Z"/><path class="cls-10" d="M132.56,11.34c.7-1.83,4.23-3.35,7.11-3.4s6.33,1.4,7,3.72A30.37,30.37,0,0,1,147.86,18a7.6,7.6,0,0,1-3.49.24,14.25,14.25,0,0,0-1.25-5h-7.45a23.66,23.66,0,0,0-.28,4.89,8.92,8.92,0,0,1-3.72.09A16.89,16.89,0,0,1,132.56,11.34Z"/><path class="cls-15" d="M138.14,6.45a7.25,7.25,0,0,1-.33,2.22s1.52,1.55,2.1,1.55,1.86-1.63,1.86-1.63-.27-.15-.31-.69a10,10,0,0,1,0-1.29Z"/><path class="cls-16" d="M141.44,7.68a13.8,13.8,0,0,1,.17-2.55h-3.39s0,1.09-.13,2.29a2.24,2.24,0,0,0,1.71,1.17A1.94,1.94,0,0,0,141.44,7.68Z"/><path class="cls-15" d="M142.28,4.54c0,1.73-1,3.11-2.42,3.12s-2.42-1.39-2.42-3.12,1.08-3.11,2.42-3.11S142.28,2.82,142.28,4.54Z"/><path class="cls-7" d="M138.68,5.39a.13.13,0,1,1,0-.18A.13.13,0,0,1,138.68,5.39Z"/><path class="cls-7" d="M141.18,5.45a.13.13,0,1,1,0-.18A.13.13,0,0,1,141.18,5.45Z"/><path class="cls-10" d="M138.56,6.11a.4.4,0,0,1-.56.12.4.4,0,0,1,.43-.68A.42.42,0,0,1,138.56,6.11Z"/><path class="cls-10" d="M141.89,6.2a.41.41,0,0,1-.56.13.41.41,0,0,1-.12-.56.4.4,0,0,1,.68.43Z"/><path class="cls-10" d="M140,5.45l.33.88a.15.15,0,0,1-.15.2l-.5,0Z"/><path class="cls-15" d="M137.63,5.56a.92.92,0,0,1,0-1.83Z"/><path class="cls-10" d="M137.62,5.13a.5.5,0,0,1-.49-.48.49.49,0,0,1,.48-.49Z"/><path class="cls-17" d="M137.89,3.47a3.32,3.32,0,0,0,1.81,2,.83.83,0,0,0,.79-.21s.56.66,1.06.69.51,0,.51,0a7.9,7.9,0,0,0,.34-1.52C142.43,3.85,137.89,3.47,137.89,3.47Z"/><path class="cls-15" d="M142.12,5.59a.92.92,0,1,0,0-1.83Z"/><path class="cls-10" d="M142.13,5.16a.49.49,0,1,0,0-1Z"/><path class="cls-8" d="M140.37,4.36c.95.68,1.7.69,2.06.23a3.15,3.15,0,0,0-.56-3.66c-.63-.5-1-.91-1.61-.93a3.14,3.14,0,0,0-2.06.73c-1,.59-.9,2.4-.91,3l.24.07.07.91s.17.2.18.16.11-1.42.11-1.42,1,1.17,1.64,1.21A.83.83,0,0,0,140.37,4.36Z"/><path class="cls-18" d="M132.05,53.8a2.51,2.51,0,0,0,1.45.4,2.73,2.73,0,0,0,1.49-.4l-.06,2.61-3.57-.13A11.27,11.27,0,0,0,132.05,53.8Z"/><path class="cls-9" d="M131.58,55.5a6.11,6.11,0,0,1,2-.44,1.48,1.48,0,0,1,1.35.48l.08,1a.54.54,0,0,1-.53.58H131.3a.31.31,0,0,1-.28-.45Z"/><path class="cls-8" d="M134.52,56.74h-3.17a.3.3,0,0,1-.28-.19l0,.09a.31.31,0,0,0,.28.45h3.18a.54.54,0,0,0,.53-.58v-.07A.53.53,0,0,1,134.52,56.74Z"/><path class="cls-18" d="M148,53.8a2.51,2.51,0,0,1-1.45.4,2.73,2.73,0,0,1-1.49-.4l.06,2.61,3.57-.13A11.27,11.27,0,0,1,148,53.8Z"/><path class="cls-9" d="M148.49,55.5a6.11,6.11,0,0,0-2-.44,1.48,1.48,0,0,0-1.35.48l-.08,1a.54.54,0,0,0,.53.58h3.18a.31.31,0,0,0,.28-.45Z"/><path class="cls-8" d="M145.54,56.74h3.18a.3.3,0,0,0,.28-.19l.05.09a.31.31,0,0,1-.28.45h-3.18a.54.54,0,0,1-.53-.58v-.07A.53.53,0,0,0,145.54,56.74Z"/><path class="cls-15" d="M142.31,14.57a.27.27,0,0,0-.27.27h0s0,0,0,.05a.54.54,0,0,1-.54.49h-.94a1.07,1.07,0,0,0-.81.37,1.12,1.12,0,0,0-.2-.18,1.1,1.1,0,0,0-.61-.19H138a.54.54,0,0,1-.54-.49v-.05a.28.28,0,0,0-.27-.27.27.27,0,0,0-.27.27,1.11,1.11,0,0,0,.14.54h0a1,1,0,0,0,.4.39,1.12,1.12,0,0,0,.25.11l.2,0H138a1,1,0,0,0-.15.52v0a1.08,1.08,0,0,0,1.08,1.08,1.09,1.09,0,0,0,.36-.06,1.82,1.82,0,0,0,.45.38,1.65,1.65,0,0,0,.45-.38,1.08,1.08,0,0,0,1.44-1v0a1.07,1.07,0,0,0-.14-.52h.09l.19,0a1.12,1.12,0,0,0,.25-.11,1.1,1.1,0,0,0,.41-.39h0a1,1,0,0,0,.15-.54.28.28,0,0,0-.27-.27Zm-3,2.31A.47.47,0,0,1,139,17h-.09a.54.54,0,0,1-.54-.53h0a.54.54,0,1,1,.88.43Zm1.82-.41a.54.54,0,0,1-.54.53h-.09a.54.54,0,0,1-.44-.62.54.54,0,0,1,1.06,0,.22.22,0,0,1,0,.08h0Z"/><line class="cls-19" x1="81.52" y1="34.01" x2="67.92" y2="78.77"/><line class="cls-19" x1="141.24" y1="30.55" x2="144.04" y2="86.32"/><ellipse class="cls-2" cx="20.18" cy="137.14" rx="15.08" ry="1.23"/><path class="cls-2" d="M51.91,108.24v0Z"/><path class="cls-8" d="M1.13,82.89a1.94,1.94,0,0,1-.64-3,10.31,10.31,0,0,1,2.07-2.23c1.33-1,1.89-.79,3.23-1s1.56-1,2.49-2a4.65,4.65,0,0,1,3.3-1.71c1.47-.16,1.89.2,3.41-.43s1.27-1.57,2.89-1.8c1.95-.28,2.7,1.37,2.63,2.91s-3.13,4.6-3.13,4.6a17.34,17.34,0,0,0-1.47,1.38c-1,1.06-1.63,1.25-3.34,1.06a3.9,3.9,0,0,0-3.29.9A3.45,3.45,0,0,1,6.33,82a3.1,3.1,0,0,0-2.73.52A2.75,2.75,0,0,1,1.13,82.89Z"/><path class="cls-11" d="M19.26,74.41l-3.39,1.43c-1.74.32-2.22-.25-3.09.58a6,6,0,0,1-2.57,1.84c-.84.14-2.11-.35-3.17.31S5.69,80.3,4.59,80.68s-1.62.1-2.47,1A2.57,2.57,0,0,0,1.53,83a3.28,3.28,0,0,0,2.07-.53A3.1,3.1,0,0,1,6.33,82a3.45,3.45,0,0,0,2.95-.51,3.9,3.9,0,0,1,3.29-.9c1.71.19,2.3,0,3.34-1.06a17.34,17.34,0,0,1,1.47-1.38,22.23,22.23,0,0,0,2.24-2.64Z"/><path class="cls-18" d="M18.33,75.64a1.24,1.24,0,1,1-1.39-1.06A1.24,1.24,0,0,1,18.33,75.64Z"/><path class="cls-10" d="M17.75,75.71a.65.65,0,1,1-1.29.18.64.64,0,0,1,.56-.73A.65.65,0,0,1,17.75,75.71Z"/><path class="cls-18" d="M20.94,86.32a18.41,18.41,0,0,1,3,.2,7.89,7.89,0,0,0,0-1.88,3.15,3.15,0,0,0-.67-1.21,2.2,2.2,0,0,0-1.25-.88c-.29-.07-.45-.17-.55-.59-.2-.82-.79-5.3-.79-5.3l-3.6,0a45,45,0,0,1,.55,5.14c-.1.66-1.18,1-2.48,1.6A5.48,5.48,0,0,1,16,87.12C17.49,86,19.36,86.35,20.94,86.32Z"/><path class="cls-20" d="M19.56,79.43a4.59,4.59,0,0,0,1.53,0c-.16-1.41-.37-2.74-.37-2.74l-2.93,0C17.89,78.12,18.6,79.23,19.56,79.43Z"/><path class="cls-18" d="M21.69,75.17c.23,1.72-.25,3.21-1.74,3.41-1.27.17-2.56-1.07-2.88-2.78s.15-3.21,1.91-3.45C21.51,72,21.46,73.44,21.69,75.17Z"/><path class="cls-21" d="M18.06,74.39a1.83,1.83,0,0,1,.69-.28,2,2,0,0,1,.74,0,.05.05,0,0,1,0,0s0,0,0,0h0a3.35,3.35,0,0,0-.71,0,2,2,0,0,0-.35.09,2.92,2.92,0,0,0-.34.13h0s0,0,0,0S18.05,74.4,18.06,74.39Z"/><path class="cls-21" d="M21.5,73.8h-.25a1.82,1.82,0,0,0-.72.21s0,0,0,0a0,0,0,0,0,0,0h0c.12,0,.23-.07.35-.09l.36,0h.25A.34.34,0,0,1,21.5,73.8Z"/><path class="cls-12" d="M19.08,74.9a.17.17,0,0,1-.14.19.16.16,0,0,1-.19-.15.16.16,0,0,1,.14-.18A.17.17,0,0,1,19.08,74.9Z"/><path class="cls-12" d="M21.43,74.58a.15.15,0,0,1-.14.18.17.17,0,1,1,0-.33A.16.16,0,0,1,21.43,74.58Z"/><path class="cls-22" d="M21.68,75.05h0a.55.55,0,0,0-.47.61.54.54,0,0,0,.57.46,5.18,5.18,0,0,0,0-1Z"/><path class="cls-22" d="M19.49,75.81a.53.53,0,0,1-.46.61.54.54,0,1,1-.14-1.07A.53.53,0,0,1,19.49,75.81Z"/><path class="cls-23" d="M20.3,73.6a5.2,5.2,0,0,0,1.29.81,2.43,2.43,0,0,0-1.83-2.25l-2.13.74-1.79,2.67.1.67c2.47,0,2.39-3.44,3.6-3.88A2.37,2.37,0,0,0,20.3,73.6Z"/><path class="cls-22" d="M20.35,74.59l.54.75a.15.15,0,0,1-.09.24l-.5.08Z"/><path class="cls-4" d="M21.18,76.23c0,.24-.27.47-.66.52s-.75-.09-.78-.32.32-.11.72-.16S21.15,76,21.18,76.23Z"/><path class="cls-24" d="M22.51,72.49a2.86,2.86,0,0,0-3.29-1.58,3.44,3.44,0,0,0-2.08,1.49l-1.61,3.48c2.47,0,2.58-2.81,3.23-3.21a4.56,4.56,0,0,1,.83-.37c.58,1.37,1.74.65,2.14,1s.31,2.06.44,2A3.07,3.07,0,0,0,22.51,72.49Z"/><path class="cls-18" d="M20,83.29c-.11,2.2,3,6.07,7,8.94A62.08,62.08,0,0,0,36.48,98c2,.9,3,1.23,3.11.92.07-.15-.17-.28-.44-.39.28.07.57.09.64,0s-.18-.31-.45-.44c.29.09.61.14.69,0s-.26-.39-.61-.53c.28.07.55.1.61,0s-1.38-.85-1.84-1c.21.08.63.22.84.27a.28.28,0,0,0,.32-.2c0-.09-.08-.14-.43-.3a35.28,35.28,0,0,1-5.85-3c-3.51-2.14-7.41-5.59-8.83-8-.2-.34-.53-1-.72-1.29C22.52,83.15,20.15,81,20,83.29Z"/><path class="cls-20" d="M24.8,86.57a9.47,9.47,0,0,1,.7,4.5s-1.52-1.34-2-1.87S24.8,86.57,24.8,86.57Z"/><polygon class="cls-7" points="32.09 135.63 31.63 135.78 31.95 136.74 32.34 136.4 32.09 135.63"/><path class="cls-18" d="M35.67,136.5a1.06,1.06,0,0,1-.44.25,2.34,2.34,0,0,1-1.92-.32,4,4,0,0,0-2.15-.63c-.86-2.5-3.4-8.46-5.52-14.79-1.65-4.94-2.75-8.81-4-13.31L25.9,106s.8,3.72,1.68,7.41,1.14,4.58,2.58,9.82c1.39,5.09,3.29,11.1,3.56,11.54C34.37,135.83,35.52,136.21,35.67,136.5Z"/><path class="cls-25" d="M35.54,136.72a2.1,2.1,0,0,1-1.7.07,9.41,9.41,0,0,0-2.15-.87c.06.23.15.45.26.82a2.33,2.33,0,0,1-.48,0s-.11-.33-.31-.9a4,4,0,0,1,2.15.63,2.34,2.34,0,0,0,1.92.32,1.06,1.06,0,0,0,.44-.25C35.71,136.58,35.67,136.65,35.54,136.72Z"/><polygon class="cls-6" points="6.94 134.68 6.48 134.53 6.17 135.49 6.68 135.45 6.94 134.68"/><path class="cls-18" d="M9.29,137.52a.94.94,0,0,1-.51-.06,2.39,2.39,0,0,1-1.34-1.4,4,4,0,0,0-1.34-1.79c.8-2.52,3.05-9.69,3.84-13.6,1-4.79,1.78-10.72,3.18-15.1l4.24,1.08A51.47,51.47,0,0,0,15.93,112a76.17,76.17,0,0,1-3.42,12.24C10.67,129.15,8.8,134.47,8.76,135A8.63,8.63,0,0,0,9.29,137.52Z"/><path class="cls-26" d="M22.36,110.24a6.19,6.19,0,0,1,1.83-1.12,5.17,5.17,0,0,1,2.33-.23c-.46-2-.78-3.53-.78-3.53L21.45,107Z"/><path class="cls-26" d="M17.28,107.23,13,106.15c-.32,1-.6,2.06-.87,3.17a6.53,6.53,0,0,1,3.14.42,4.43,4.43,0,0,1,1.07.58C16.89,108.33,17.28,107.23,17.28,107.23Z"/><path class="cls-25" d="M9.06,137.62a2.07,2.07,0,0,1-1.41-1,9.34,9.34,0,0,0-1.2-2c-.09.21-.15.44-.28.81a2,2,0,0,1-.36-.31s.1-.34.29-.91a4,4,0,0,1,1.34,1.79,2.39,2.39,0,0,0,1.34,1.4.94.94,0,0,0,.51.06C9.27,137.61,9.2,137.64,9.06,137.62Z"/><path class="cls-24" d="M15.62,91.48c-.21,1.21-1.8,2.52-3,6s-1.48,11-1.48,11a38.1,38.1,0,0,0,8.24.43,39.76,39.76,0,0,0,7.59-.68,54.13,54.13,0,0,0-.64-8.5c-.74-5.07-2.77-6.78-3-8.35Z"/><path class="cls-10" d="M19.66,104.07c-3.33.09-6.06,0-8.2-.07-.05.58-.1,1.13-.14,1.64,1.43.08,3.09.12,5,.12,1.06,0,2.19,0,3.4,0,2.88-.08,5.26-.22,7.19-.37,0-.49-.06-1-.11-1.64C24.82,103.86,22.45,104,19.66,104.07Z"/><path class="cls-10" d="M19.66,100.9c-3.12.08-5.73,0-7.8-.05-.09.54-.16,1.09-.23,1.64,1.36.06,2.92.1,4.68.1,1.06,0,2.19,0,3.4,0,2.75-.07,5.05-.2,6.93-.34-.05-.52-.12-1.07-.2-1.64C24.55,100.71,22.29,100.83,19.66,100.9Z"/><path class="cls-10" d="M19.66,97.73c-2.79.07-5.16,0-7.11,0a16.69,16.69,0,0,0-.42,1.63c1.24,0,2.63.08,4.18.08,1.06,0,2.19,0,3.4,0,2.55-.06,4.71-.18,6.51-.31-.1-.59-.23-1.13-.36-1.63C24.09,97.56,22,97.67,19.66,97.73Z"/><path class="cls-10" d="M19.66,94.56c-2.16.06-4.07,0-5.73,0a16.26,16.26,0,0,0-.81,1.62c1,0,2,0,3.19,0s2.19,0,3.4,0c2.17,0,4.05-.15,5.68-.25-.23-.61-.47-1.14-.7-1.61C23.2,94.43,21.52,94.51,19.66,94.56Z"/><path class="cls-10" d="M15.62,91.48a4.74,4.74,0,0,1-.77,1.59h1.46c1.06,0,2.19,0,3.4,0,1.54,0,2.94-.1,4.2-.16a4.93,4.93,0,0,1-.58-1.5Z"/><path class="cls-10" d="M27,106.86c-2,.16-4.43.3-7.3.38-3.46.09-6.28,0-8.45-.08-.05.8-.07,1.31-.07,1.31a33.6,33.6,0,0,0,6.38.46l2.19,0,1,0a35,35,0,0,0,6.22-.63S27,107.73,27,106.86Z"/><path class="cls-24" d="M22.12,82.55c.46.34,1.44,3.27,1.44,3.27l1.24.2a12.37,12.37,0,0,0-1.41-2.69A2.64,2.64,0,0,0,22.12,82.55Z"/><path class="cls-24" d="M14.9,88.41l.68-2.09a29.3,29.3,0,0,1,5.28-.61,21.13,21.13,0,0,1,3.76.08,3.08,3.08,0,0,1,.62,2.63A2.44,2.44,0,0,1,23.63,90l-.3,1.37a12.23,12.23,0,0,1-3.91.34,23.76,23.76,0,0,1-3.8-.23Z"/><path class="cls-24" d="M8.78,137.46a.94.94,0,0,0,.51.06,7.07,7.07,0,0,0-.38-1.22,1.18,1.18,0,0,1-1-.5,3.81,3.81,0,0,0-1.64-2c0,.18-.11.34-.15.49a4,4,0,0,1,1.34,1.79A2.39,2.39,0,0,0,8.78,137.46Z"/><path class="cls-24" d="M35.23,136.75a1.06,1.06,0,0,0,.44-.25,3.74,3.74,0,0,0-.83-.6,1.2,1.2,0,0,1-1.2.21,3.76,3.76,0,0,0-2.64-.76c.06.16.12.31.16.45a4,4,0,0,1,2.15.63A2.34,2.34,0,0,0,35.23,136.75Z"/><path class="cls-27" d="M19.69,96.5c2.51,1.41,4.78,2.54,6.66,3.37a.77.77,0,0,1,0-.15,20.2,20.2,0,0,0-.69-3C22,94.93,17.81,92,16.17,89.78c-.23-.31-.63-.9-.85-1.21l-.39-.24,0,.08.72,3.07A4.75,4.75,0,0,1,14.88,93,26.17,26.17,0,0,0,19.69,96.5Z"/><path class="cls-24" d="M47.85,85.33,44.4,97.43,33.09,103A12.59,12.59,0,0,1,47.85,85.33Z"/><path class="cls-28" d="M44.4,97.43H57v.09C52.92,97.57,44.4,97.43,44.4,97.43Z"/><path class="cls-18" d="M54.38,89.77l-10,7.66,3.45-12.1A12.6,12.6,0,0,1,54.38,89.77Z"/><path class="cls-22" d="M57,97.43H44.4l10-7.66A12.53,12.53,0,0,1,57,97.43Z"/><path class="cls-10" d="M57,97.52a12.64,12.64,0,0,1-.68,4l-11.9-4.1S52.92,97.57,57,97.52Z"/><path class="cls-29" d="M56.3,101.53A12.59,12.59,0,0,1,33.09,103L44.4,97.43Z"/><path class="cls-18" d="M13.64,85.85c-.11,2.2,2.95,6.07,7,9a61.47,61.47,0,0,0,9.46,5.75c2,.9,3,1.23,3.11.93s-.16-.29-.43-.39c.28.06.57.08.64,0s-.18-.32-.45-.44c.29.09.6.14.69,0s-.26-.38-.61-.53c.27.08.55.11.61,0s-1.39-.86-1.85-1c.22.08.63.22.85.27A.28.28,0,0,0,33,99c0-.1-.08-.15-.43-.31a36,36,0,0,1-5.86-3c-3.51-2.14-7.41-5.6-8.83-8-.19-.33-.52-1-.71-1.29C16.12,85.72,13.76,83.51,13.64,85.85Z"/><path class="cls-10" d="M29.69,97.44a9.71,9.71,0,0,1-1.1,2.37l.5.27a8,8,0,0,0,.44-.74,11.62,11.62,0,0,0,.67-1.64Z"/><path class="cls-24" d="M15.91,83.09c-1.41.67-2.51,1.55-2.29,3.09a5.93,5.93,0,0,0,.91,2.48,3.39,3.39,0,0,1,1.32-1.24,3.77,3.77,0,0,1,1.6-.36Z"/></g></g></g></svg>