<?xml version="1.0" encoding="UTF-8"?>
<svg width="300px" height="210px" viewBox="0 0 300 210" version="1.1" xmlns="http://www.w3.org/2000/svg" xmlns:xlink="http://www.w3.org/1999/xlink">
    <!-- Generator: Sketch 62 (91390) - https://sketch.com -->
    <title>Group 40</title>
    <desc>Created with Sketch.</desc>
    <defs>
        <polygon id="path-1" points="0 210.111111 299.888889 210.111111 299.888889 0.993333333 0 0.993333333"></polygon>
    </defs>
    <g id="Tabs" stroke="none" stroke-width="1" fill="none" fill-rule="evenodd">
        <g id="Athenian---Overview---v1.3-Copy-2" transform="translate(-570.000000, -877.000000)">
            <g id="Group-40" transform="translate(570.000000, 876.000000)">
                <polygon id="Fill-1" fill="#F3F3F5" points="0 192.197778 234.911111 192.197778 234.911111 15.02 0 15.02"></polygon>
                <polygon id="Fill-2" fill="#E7E7EC" points="0 39.5444444 234.911111 39.5444444 234.911111 15.02 0 15.02"></polygon>
                <g id="Group-39" transform="translate(0.000000, 0.228889)">
                    <path d="M299.888667,203.541778 C299.888667,207.170667 273.442,210.110667 240.815333,210.110667 C208.190889,210.110667 181.744222,207.170667 181.744222,203.541778 C181.744222,199.915111 208.190889,196.975111 240.815333,196.975111 C273.442,196.975111 299.888667,199.915111 299.888667,203.541778" id="Fill-3" fill="#E7E7EC"></path>
                    <path d="M26.7051111,27.6693333 C26.6695556,29.0471111 25.5428889,30.1426667 24.1651111,30.1426667 C24.0251111,30.1426667 23.8828889,30.1315556 23.7451111,30.1093333 C22.3606667,29.876 21.4273333,28.5648889 21.6628889,27.1804444 C21.8428889,26.1137778 22.6784444,25.2782222 23.7451111,25.0982222 C25.1295556,24.8671111 26.4406667,25.8004444 26.674,27.1848889 C26.694,27.3026667 26.7051111,27.4204444 26.7073333,27.5382222 L26.7073333,27.6026667 C26.7073333,27.6248889 26.7051111,27.6471111 26.7051111,27.6693333 L26.7051111,27.6693333 Z M18.134,29.5871111 C17.7962222,29.8582222 17.394,30.0382222 16.9673333,30.1093333 C16.8273333,30.1315556 16.6873333,30.1426667 16.5451111,30.1426667 C15.1673333,30.1426667 14.0406667,29.0471111 14.0051111,27.6693333 L14.0051111,27.6026667 L14.0051111,27.5382222 C14.0428889,26.136 15.2073333,25.0293333 16.6117778,25.0648889 C18.0117778,25.1004444 19.1206667,26.2648889 19.0851111,27.6693333 C19.0651111,28.416 18.7162222,29.1182222 18.1317778,29.5871111 L18.134,29.5871111 Z M32.4206667,18.7137778 C31.7184444,18.7137778 31.1495556,19.2826667 31.1495556,19.9848889 C31.1495556,20.0626667 31.1473333,20.1404444 31.1406667,20.2182222 C31.0206667,21.5248889 29.9228889,22.5271111 28.6073333,22.5248889 L24.2095556,22.5248889 L24.1651111,22.5248889 C22.7073333,22.5248889 21.3206667,23.1515556 20.3562222,24.2448889 C20.0762222,23.9248889 19.7562222,23.6426667 19.4028889,23.4048889 C18.5606667,22.8293333 17.5651111,22.5226667 16.5473333,22.5248889 L16.5006667,22.5248889 L12.1028889,22.5248889 C10.7895556,22.5271111 9.69177778,21.5248889 9.57177778,20.2182222 C9.56511111,20.1404444 9.56066667,20.0626667 9.56066667,19.9848889 C9.56066667,19.2826667 8.994,18.7137778 8.29177778,18.7137778 C7.58955556,18.7137778 7.02287331,19.2826667 7.02287331,19.9848889 C7.02066667,20.876 7.25622222,21.7515556 7.70066667,22.5248889 C7.70955556,22.536 7.71844444,22.5493333 7.72288889,22.5626667 C8.18288889,23.3404444 8.83844444,23.9804444 9.62511111,24.4226667 C9.99622222,24.6293333 10.3917778,24.7915556 10.8028889,24.8982222 C11.1051111,24.9782222 11.414,25.0315556 11.7251111,25.0537778 C11.8495556,25.0626667 11.9762222,25.0671111 12.1028889,25.0671111 L12.1473333,25.0671111 C11.7162222,25.8137778 11.4806667,26.6582222 11.4695556,27.5204444 L11.4695556,27.6071111 C11.4695556,30.4115556 13.7428889,32.6871111 16.5495556,32.6848889 C17.1251111,32.6848889 17.6984444,32.5871111 18.2406667,32.396 C18.8295556,33.1248889 19.5473333,33.7382222 20.3584444,34.2048889 C21.1673333,33.736 21.8851111,33.1248889 22.4717778,32.396 C25.1184444,33.3315556 28.0184444,31.9448889 28.9562222,29.3004444 C29.1473333,28.756 29.2473333,28.1826667 29.2451111,27.6071111 L29.2451111,27.5204444 C29.2317778,26.6582222 28.9984444,25.8137778 28.5673333,25.0671111 L28.6117778,25.0671111 C28.7384444,25.0671111 28.8651111,25.0626667 28.9895556,25.0537778 C29.3006667,25.0315556 29.6095556,24.9782222 29.9095556,24.8982222 C30.3228889,24.7915556 30.7184444,24.6293333 31.0895556,24.4226667 C31.8762222,23.9804444 32.5295556,23.3404444 32.9895556,22.5671111 L33.0117778,22.5271111 C33.4584444,21.756 33.6917778,20.8782222 33.6895713,19.9871111 C33.6917778,19.2871111 33.1251111,18.716 32.4228889,18.7137778 L32.4206667,18.7137778 Z" id="Fill-5" fill="#FAFAFB"></path>
                    <polygon id="Fill-7" fill="#E7E7EC" points="25.4344444 114.49 46.8811111 96.4166667 71.9788889 105.454444 115.083333 70.5877778 136.021111 85.3566667 203.758889 63.1166667 203.758889 114.49"></polygon>
                    <mask id="mask-2" fill="white">
                        <use xlink:href="#path-1"></use>
                    </mask>
                    <g id="Clip-10"></g>
                    <polygon id="Fill-9" fill="#E7E7EC" mask="url(#mask-2)" points="25.4333333 139.835556 203.757778 139.835556 203.757778 133.317778 25.4333333 133.317778"></polygon>
                    <polygon id="Fill-11" fill="#E7E7EC" mask="url(#mask-2)" points="25.4333333 150.946667 203.757778 150.946667 203.757778 144.428889 25.4333333 144.428889"></polygon>
                    <polygon id="Fill-12" fill="#E7E7EC" mask="url(#mask-2)" points="25.4333333 162.057778 203.757778 162.057778 203.757778 155.54 25.4333333 155.54"></polygon>
                    <polygon id="Fill-13" fill="#E7E7EC" mask="url(#mask-2)" points="25.4333333 173.168889 203.757778 173.168889 203.757778 166.651111 25.4333333 166.651111"></polygon>
                    <path d="M189.418889,29.0895556 C189.418889,33.0495556 192.627778,36.2584444 196.587778,36.2584444 C200.547778,36.2584444 203.758889,33.0495556 203.758889,29.0895556 C203.758889,25.1295556 200.547778,21.9184444 196.587778,21.9184444 C192.627778,21.9184444 189.418889,25.1295556 189.418889,29.0895556 Z" id="Stroke-14" stroke="#EC6B3E" stroke-width="2" mask="url(#mask-2)"></path>
                    <path d="M265.276,197.22 C265.969333,200.122222 266.327111,202.76 266.316,203.184444 C266.307111,203.608889 256.127111,203.613333 252.649333,203.613333 C249.171556,203.613333 247.822667,203.24 247.822667,203.24 C247.822667,203.24 247.093778,201.866667 248.464889,201.304444 C249.836,200.744444 255.187111,196.975556 255.187111,196.975556 L265.276,197.22 Z" id="Fill-15" fill="#F18C61" mask="url(#mask-2)"></path>
                    <path d="M227.287778,195.408 C227.063333,196.988 226.198889,199.539111 225.647778,201.074667 C225.39,201.790222 224.603333,202.159111 223.887778,201.901333 L203.543333,194.561333 C203.543333,194.561333 203.543333,192.950222 205.238889,192.779111 C206.934444,192.610222 214.143333,193.796889 215.076667,193.543556 C216.01,193.288 218.043333,190.914667 218.043333,190.914667 L227.287778,195.408 Z" id="Fill-16" fill="#F18C61" mask="url(#mask-2)"></path>
                    <path d="M244.478444,40.8766667 C244.034,41.9411111 243.480667,43.05 242.640667,43.87 C241.174,44.3522222 239.742889,44.8944444 238.360667,45.3188889 C236.929556,45.2455556 235.602889,44.7611111 234.218444,44.0322222 C231.725111,42.7277778 229.542889,40.8566667 227.405111,38.9188889 C231.722889,35.5811111 233.029556,36.2033333 232.858444,34.0122222 C232.671778,31.5922222 228.180667,19.8744444 228.180667,19.8744444 L237.991778,16.8011111 C237.991778,16.8011111 242.227333,28.43 243.174,30.2922222 C243.745111,31.4166667 245.349556,31.8011111 247.547333,32.0633333 C246.820667,35.09 245.671778,38.01 244.478444,40.8766667" id="Fill-17" fill="#F9C8AF" mask="url(#mask-2)"></path>
                    <path d="M232.862889,34.6104444 C232.878444,34.4371111 232.876222,34.2393333 232.860667,34.0126667 C232.671778,31.5926667 228.180667,19.8748889 228.180667,19.8748889 L237.991778,16.8015556 C237.991778,16.8015556 242.227333,28.4304444 243.174,30.2926667 C243.325111,30.5904444 243.551778,30.8371111 243.842889,31.0437778 L232.862889,34.6104444 Z" id="Fill-18" fill="#F9C8AF" mask="url(#mask-2)"></path>
                    <path d="M232.859556,29.2253333 C232.446222,29.3653333 232.046222,29.4631111 231.657333,29.5253333 C230.250667,25.4897778 228.859556,21.7408889 228.859556,21.7408889 L235.868444,19.5097778 C237.037333,23.9986667 236.161778,28.152 232.859556,29.2253333" id="Fill-19" fill="#F5AB88" mask="url(#mask-2)"></path>
                    <path d="M232.468889,16.2457778 C233.424444,17.9457778 235.575556,18.548 237.275556,17.5924444 C238.973333,16.6368889 239.575556,14.4857778 238.62,12.7857778 C237.664444,11.088 235.513333,10.4857778 233.813333,11.4391111 C232.115556,12.3968889 231.513333,14.548 232.468889,16.2457778" id="Fill-20" fill="#F5AB88" mask="url(#mask-2)"></path>
                    <path d="M233.924,15.4275556 C234.428444,16.3231111 235.561778,16.6408889 236.457333,16.1364444 C237.350667,15.6342222 237.668444,14.5008889 237.164,13.6053333 C236.661778,12.7097778 235.528444,12.392 234.632889,12.8942222 C233.737333,13.3986667 233.419556,14.532 233.924,15.4275556" id="Fill-21" fill="#F18C61" mask="url(#mask-2)"></path>
                    <path d="M223.976,20.9571111 C226.413778,25.2926667 230.024889,27.9482222 234.160444,25.5615556 C237.347111,23.7704444 237.953778,18.8037778 235.513778,14.4682222 C233.076,10.1326667 230.011556,7.23044444 225.329333,9.86377778 C220.176,12.7615556 221.538222,16.6215556 223.976,20.9571111" id="Fill-22" fill="#F9C8AF" mask="url(#mask-2)"></path>
                    <path d="M229.839778,15.356 C229.975333,15.596 230.279778,15.6804444 230.517556,15.5448889 C230.757556,15.4115556 230.844222,15.1071111 230.708667,14.8671111 C230.573111,14.6271111 230.268667,14.5426667 230.028667,14.6782222 C229.790889,14.8115556 229.704222,15.116 229.839778,15.356" id="Fill-23" fill="#C47A58" mask="url(#mask-2)"></path>
                    <path d="M223.887111,18.7044444 C224.004889,18.9155556 224.271556,18.9888889 224.484889,18.8711111 C224.696,18.7533333 224.769333,18.4844444 224.651556,18.2755556 C224.533778,18.0622222 224.264889,17.9888889 224.053778,18.1066667 C223.842667,18.2266667 223.767111,18.4933333 223.887111,18.7044444" id="Fill-24" fill="#C47A58" mask="url(#mask-2)"></path>
                    <path d="M226.492444,16.978 L226.552444,19.638 C226.559111,19.9513333 226.894667,20.1491111 227.172444,20.0046667 L228.443556,19.3402222 L226.492444,16.978 Z" id="Fill-25" fill="#F5AB88" mask="url(#mask-2)"></path>
                    <path d="M226.807111,21.8955556 C227.133778,22.4755556 228.207111,22.4911111 229.207111,21.9288889 C230.207111,21.3666667 230.751556,20.44 230.424889,19.86 C230.098222,19.28 229.520444,20.1755556 228.520444,20.7377778 C227.520444,21.3 226.480444,21.3155556 226.807111,21.8955556" id="Fill-26" fill="#FEFEFE" mask="url(#mask-2)"></path>
                    <path d="M221.890667,14.0386667 C220.335111,13.7364444 217.519556,5.76311111 220.948444,2.81644444 C223.588444,0.547555556 227.050667,3.73866667 229.359556,4.29866667 C231.666222,4.85644444 233.470667,5.08977778 234.979556,3.00311111 C236.488444,0.918666667 239.139556,0.467555556 241.288444,1.59644444 C243.435111,2.72533333 243.601778,5.58977778 242.084,6.92533333 C240.566222,8.26088889 238.710667,7.04088889 237.604,8.99644444 C235.948444,11.9208889 234.699556,12.6853333 233.224,12.8297778 C231.257333,13.0231111 229.875111,12.412 227.977333,10.3653333 C227.977333,10.3653333 224.048444,13.4475556 221.890667,14.0386667" id="Fill-27" fill="#C47A58" mask="url(#mask-2)"></path>
                    <path d="M230.792444,7.28955556 C232.332444,7.48066667 234.219111,7.84955556 235.588,6.52066667 C236.956889,5.19177778 239.052444,4.82288889 240.341333,5.34288889 C240.976889,5.59844444 241.692444,6.20955556 242.252444,6.76288889 C242.196889,6.81844444 242.141333,6.874 242.083556,6.92511111 C240.565778,8.26066667 238.710222,7.04066667 237.603556,8.99844444 C235.948,11.9206667 234.699111,12.6851111 233.223556,12.8295556 C231.256889,13.0228889 229.874667,12.4117778 227.976889,10.3651111 C227.156889,8.46288889 229.252444,7.09622222 230.792444,7.28955556" id="Fill-28" fill="#EC6B3E" mask="url(#mask-2)"></path>
                    <path d="M231.020444,12.6682222 C230.836,12.6637778 230.651556,12.6748889 230.464889,12.686 C230.282667,12.7171111 230.096,12.7348889 229.916,12.7882222 C229.551556,12.8793333 229.200444,13.0348889 228.871556,13.226 C228.229333,13.6348889 227.669333,14.2393333 227.507111,15.0215556 C227.491556,15.1015556 227.542667,15.1793333 227.622667,15.1971111 C227.684889,15.2104444 227.742667,15.1815556 227.778222,15.1326667 L227.789333,15.1148889 C227.967111,14.8482222 228.200444,14.5948889 228.436,14.3726667 C228.676,14.1504444 228.936,13.9548889 229.213778,13.7793333 C229.493778,13.6104444 229.787111,13.4615556 230.096,13.3304444 C230.407111,13.1993333 230.729333,13.086 231.062667,12.9637778 L231.067111,12.9615556 C231.147111,12.9326667 231.187111,12.846 231.158222,12.766 C231.136,12.7082222 231.080444,12.6682222 231.020444,12.6682222" id="Fill-29" fill="#C47A58" mask="url(#mask-2)"></path>
                    <path d="M225.235778,16.0644444 C225.086889,16.0355556 224.938,16.0288889 224.786889,16.0133333 C224.635778,16.0088889 224.484667,16.0177778 224.333556,16.0266667 C224.029111,16.06 223.724667,16.1288889 223.431333,16.2555556 C223.140222,16.38 222.858,16.5644444 222.640222,16.82 C222.422444,17.0777778 222.275778,17.3911111 222.286889,17.7533333 C222.291333,17.8355556 222.358,17.9 222.440222,17.8977778 C222.495778,17.8955556 222.542444,17.8622222 222.564667,17.8177778 L222.584667,17.78 C222.689111,17.5733333 222.866889,17.3755556 223.049111,17.2244444 C223.238,17.0755556 223.453556,16.9488889 223.691333,16.8511111 C223.922444,16.7422222 224.178,16.6688889 224.438,16.5888889 C224.700222,16.5177778 224.971333,16.4466667 225.249111,16.3622222 L225.251333,16.36 C225.333556,16.3355556 225.378,16.2488889 225.353556,16.1688889 C225.335778,16.1133333 225.289111,16.0733333 225.235778,16.0644444" id="Fill-30" fill="#C47A58" mask="url(#mask-2)"></path>
                    <path d="M252.729333,5.87244444 C252.729333,5.87244444 243.442667,4.58577778 240.340444,5.34133333 C237.238222,6.09911111 235.542667,7.45466667 235.711556,7.79466667 C235.880444,8.13466667 239.724889,6.66355556 239.724889,6.66355556 C239.724889,6.66355556 239.160444,7.79466667 239.838222,8.24577778 C239.838222,8.24577778 239.216,8.98133333 239.951556,9.49022222 C239.951556,9.49022222 239.329333,9.94355556 240.051556,10.6635556 C240.051556,10.6635556 239.500444,11.2146667 240.687111,11.9791111 C241.873778,12.7413333 243.316,12.9968889 243.442667,12.6146667 C243.569333,12.2324444 241.831556,11.0035556 241.831556,11.0035556 C241.831556,11.0035556 243.824889,11.5546667 246.200444,11.6813333 C248.573778,11.808 252.389333,12.0635556 252.389333,12.0635556 L252.729333,5.87244444 Z" id="Fill-31" fill="#F9C8AF" mask="url(#mask-2)"></path>
                    <path d="M264.036889,80.2735556 C270.143556,96.5557778 267.421333,110.618 269.181333,141.726889 C271.216889,177.684667 266.072444,197.640222 266.072444,197.640222 C266.072444,197.640222 263.981333,199.393556 260.361333,199.393556 C256.743556,199.393556 254.085778,197.529111 254.085778,197.529111 C254.085778,197.529111 253.690222,146.249111 252.559111,126.802444 C251.430222,107.355778 249.110222,97.9113333 249.110222,97.9113333 C249.110222,97.9113333 244.134667,134.773556 238.708,160.102444 C233.281333,185.429111 227.174667,197.189111 227.174667,197.189111 L216.545778,192.213556 C216.545778,192.213556 224.234667,157.615778 227.628,136.584667 C231.019111,115.551333 231.812444,82.4224444 231.812444,82.4224444 L264.036889,80.2735556 Z" id="Fill-32" fill="#EC6B3E" mask="url(#mask-2)"></path>
                    <path d="M245.153333,31.3128889 C245.153333,31.3128889 243.682222,37.6462222 238.595556,38.4373333 C233.506667,39.2284444 232.262222,35.7217778 232.262222,35.7217778 C232.262222,35.7217778 223.895556,40.0195556 221.295556,44.7684444 C218.695556,49.5173333 217,69.984 217,75.2973333 C217,80.6128889 218.468889,84.684 223.331111,83.6662222 C228.193333,82.6484444 228.08,66.2528889 228.08,66.2528889 L231.811111,82.4217778 C231.811111,82.4217778 235.315556,86.3795556 248.093333,85.0217778 C260.871111,83.6662222 265.28,81.0662222 265.28,81.0662222 C265.28,81.0662222 264.282222,70.6262222 262.906667,61.7306667 C261.435556,52.2306667 260.417778,44.204 260.417778,44.204 C260.417778,44.204 282.693333,30.4084444 280.204444,19.2151111 C277.304444,6.16177778 252.502222,5.19511111 252.502222,5.19511111 L250.806667,13.4484444 C250.806667,13.4484444 269.691111,18.6484444 270.142222,19.5528889 C270.595556,20.4595556 263.046667,26.8395556 257.14,28.7128889 C252.502222,30.1817778 245.153333,31.3128889 245.153333,31.3128889" id="Fill-33" fill="#F18C61" mask="url(#mask-2)"></path>
                    <path d="M215.851111,45.154 L215.851111,45.154 C216.006667,44.9695556 215.984444,44.6962222 215.8,44.5428889 L202.668889,33.4251111 C202.486667,33.2717778 202.213333,33.294 202.057778,33.4762222 C201.904444,33.6606667 201.926667,33.934 202.108889,34.0895556 L215.24,45.2051111 C215.422222,45.3584444 215.695556,45.3362222 215.851111,45.154" id="Fill-34" fill="#EC6B3E" mask="url(#mask-2)"></path>
                    <path d="M214.398222,43.978 C214.453778,44.6557778 211.833778,44.6068889 211.833778,44.6068889 C211.833778,44.6068889 212.476,45.6735556 213.040444,48.2735556 C213.607111,50.8757778 213.720444,52.5157778 213.720444,52.5157778 L208.858222,53.7024444 C208.858222,53.7024444 205.918222,46.1824444 205.691556,43.4135556 C205.464889,40.6424444 208.009333,38.8335556 208.800444,39.0024444 C209.591556,39.1713333 212.264889,40.4291111 211.980444,41.1068889 C211.698222,41.7868889 209.140444,40.5557778 209.140444,40.5557778 L208.271556,41.638 C208.271556,41.638 210.093778,41.1402222 212.702667,42.2535556 C215.584889,43.4824444 214.398222,43.978 214.398222,43.978" id="Fill-35" fill="#F9C8AF" mask="url(#mask-2)"></path>
                    <path d="M213.945778,52.0053333 L208.179111,53.2497778 C208.179111,53.2497778 210.101333,65.4608889 213.041333,72.9231111 C215.981333,80.3853333 219.685778,85.8764444 223.330222,83.6653333 C229.663556,79.8231111 213.945778,52.0053333 213.945778,52.0053333" id="Fill-36" fill="#F5AB88" mask="url(#mask-2)"></path>
                    <path d="M258.411778,202.532667 C261.440667,202.066 263.758444,201.388222 266.082889,201.279333 C266.240667,202.274889 266.322889,202.981556 266.316222,203.183778 C266.307333,203.608222 256.127333,203.612667 252.649556,203.612667 C249.171778,203.612667 247.822889,203.239333 247.822889,203.239333 C247.822889,203.239333 247.727333,203.059333 247.671778,202.806 C249.720667,202.854889 255.694,202.948222 258.411778,202.532667" id="Fill-37" fill="#EC6B3E" mask="url(#mask-2)"></path>
                    <path d="M203.543111,194.561556 C203.543111,194.561556 203.543111,194.243778 203.692,193.874889 C205.320889,194.534889 211.578667,197.034889 215.754222,198.208222 C220.183111,199.450444 222.974222,198.774889 226.214222,199.434889 C226.014222,200.039333 225.816444,200.606 225.647556,201.074889 C225.389778,201.790444 224.603111,202.159333 223.887556,201.901556 L203.543111,194.561556 Z" id="Fill-38" fill="#EC6B3E" mask="url(#mask-2)"></path>
                </g>
            </g>
        </g>
    </g>
</svg>